<?xml version="1.0" encoding="utf-8" standalone="no"?>
<!DOCTYPE svg PUBLIC "-//W3C//DTD SVG 1.1//EN"
  "http://www.w3.org/Graphics/SVG/1.1/DTD/svg11.dtd">
<svg xmlns:xlink="http://www.w3.org/1999/xlink" width="702.574937pt" height="425.317375pt" viewBox="0 0 702.574937 425.317375" xmlns="http://www.w3.org/2000/svg" version="1.1">
 <metadata>
  <rdf:RDF xmlns:dc="http://purl.org/dc/elements/1.1/" xmlns:cc="http://creativecommons.org/ns#" xmlns:rdf="http://www.w3.org/1999/02/22-rdf-syntax-ns#">
   <cc:Work>
    <dc:type rdf:resource="http://purl.org/dc/dcmitype/StillImage"/>
    <dc:date>2026-05-01T00:31:45.807483</dc:date>
    <dc:format>image/svg+xml</dc:format>
    <dc:creator>
     <cc:Agent>
      <dc:title>Matplotlib v3.10.9, https://matplotlib.org/</dc:title>
     </cc:Agent>
    </dc:creator>
   </cc:Work>
  </rdf:RDF>
 </metadata>
 <defs>
  <style type="text/css">*{stroke-linejoin: round; stroke-linecap: butt}</style>
 </defs>
 <g id="figure_1">
  <g id="patch_1">
   <path d="M 0 425.317375 
L 702.574937 425.317375 
L 702.574937 0 
L 0 0 
z
" style="fill: #ffffff"/>
  </g>
  <g id="axes_1">
   <g id="patch_2">
    <path d="M 42.190938 320.773656 
L 695.374937 320.773656 
L 695.374937 46.597656 
L 42.190938 46.597656 
z
" style="fill: #ffffff"/>
   </g>
   <g id="matplotlib.axis_1">
    <g id="xtick_1">
     <g id="line2d_1"/>
     <g id="text_1">
      <!-- Last-write-wins -->
      <g style="fill: #111827" transform="translate(88.238331 331.11225) scale(0.09 -0.09)">
       <defs>
        <path id="DejaVuSans-4c" d="M 628 4666 
L 1259 4666 
L 1259 531 
L 3531 531 
L 3531 0 
L 628 0 
L 628 4666 
z
" transform="scale(0.015625)"/>
        <path id="DejaVuSans-61" d="M 2194 1759 
Q 1497 1759 1228 1600 
Q 959 1441 959 1056 
Q 959 750 1161 570 
Q 1363 391 1709 391 
Q 2188 391 2477 730 
Q 2766 1069 2766 1631 
L 2766 1759 
L 2194 1759 
z
M 3341 1997 
L 3341 0 
L 2766 0 
L 2766 531 
Q 2569 213 2275 61 
Q 1981 -91 1556 -91 
Q 1019 -91 701 211 
Q 384 513 384 1019 
Q 384 1609 779 1909 
Q 1175 2209 1959 2209 
L 2766 2209 
L 2766 2266 
Q 2766 2663 2505 2880 
Q 2244 3097 1772 3097 
Q 1472 3097 1187 3025 
Q 903 2953 641 2809 
L 641 3341 
Q 956 3463 1253 3523 
Q 1550 3584 1831 3584 
Q 2591 3584 2966 3190 
Q 3341 2797 3341 1997 
z
" transform="scale(0.015625)"/>
        <path id="DejaVuSans-73" d="M 2834 3397 
L 2834 2853 
Q 2591 2978 2328 3040 
Q 2066 3103 1784 3103 
Q 1356 3103 1142 2972 
Q 928 2841 928 2578 
Q 928 2378 1081 2264 
Q 1234 2150 1697 2047 
L 1894 2003 
Q 2506 1872 2764 1633 
Q 3022 1394 3022 966 
Q 3022 478 2636 193 
Q 2250 -91 1575 -91 
Q 1294 -91 989 -36 
Q 684 19 347 128 
L 347 722 
Q 666 556 975 473 
Q 1284 391 1588 391 
Q 1994 391 2212 530 
Q 2431 669 2431 922 
Q 2431 1156 2273 1281 
Q 2116 1406 1581 1522 
L 1381 1569 
Q 847 1681 609 1914 
Q 372 2147 372 2553 
Q 372 3047 722 3315 
Q 1072 3584 1716 3584 
Q 2034 3584 2315 3537 
Q 2597 3491 2834 3397 
z
" transform="scale(0.015625)"/>
        <path id="DejaVuSans-74" d="M 1172 4494 
L 1172 3500 
L 2356 3500 
L 2356 3053 
L 1172 3053 
L 1172 1153 
Q 1172 725 1289 603 
Q 1406 481 1766 481 
L 2356 481 
L 2356 0 
L 1766 0 
Q 1100 0 847 248 
Q 594 497 594 1153 
L 594 3053 
L 172 3053 
L 172 3500 
L 594 3500 
L 594 4494 
L 1172 4494 
z
" transform="scale(0.015625)"/>
        <path id="DejaVuSans-2d" d="M 313 2009 
L 1997 2009 
L 1997 1497 
L 313 1497 
L 313 2009 
z
" transform="scale(0.015625)"/>
        <path id="DejaVuSans-77" d="M 269 3500 
L 844 3500 
L 1563 769 
L 2278 3500 
L 2956 3500 
L 3675 769 
L 4391 3500 
L 4966 3500 
L 4050 0 
L 3372 0 
L 2619 2869 
L 1863 0 
L 1184 0 
L 269 3500 
z
" transform="scale(0.015625)"/>
        <path id="DejaVuSans-72" d="M 2631 2963 
Q 2534 3019 2420 3045 
Q 2306 3072 2169 3072 
Q 1681 3072 1420 2755 
Q 1159 2438 1159 1844 
L 1159 0 
L 581 0 
L 581 3500 
L 1159 3500 
L 1159 2956 
Q 1341 3275 1631 3429 
Q 1922 3584 2338 3584 
Q 2397 3584 2469 3576 
Q 2541 3569 2628 3553 
L 2631 2963 
z
" transform="scale(0.015625)"/>
        <path id="DejaVuSans-69" d="M 603 3500 
L 1178 3500 
L 1178 0 
L 603 0 
L 603 3500 
z
M 603 4863 
L 1178 4863 
L 1178 4134 
L 603 4134 
L 603 4863 
z
" transform="scale(0.015625)"/>
        <path id="DejaVuSans-65" d="M 3597 1894 
L 3597 1613 
L 953 1613 
Q 991 1019 1311 708 
Q 1631 397 2203 397 
Q 2534 397 2845 478 
Q 3156 559 3463 722 
L 3463 178 
Q 3153 47 2828 -22 
Q 2503 -91 2169 -91 
Q 1331 -91 842 396 
Q 353 884 353 1716 
Q 353 2575 817 3079 
Q 1281 3584 2069 3584 
Q 2775 3584 3186 3129 
Q 3597 2675 3597 1894 
z
M 3022 2063 
Q 3016 2534 2758 2815 
Q 2500 3097 2075 3097 
Q 1594 3097 1305 2825 
Q 1016 2553 972 2059 
L 3022 2063 
z
" transform="scale(0.015625)"/>
        <path id="DejaVuSans-6e" d="M 3513 2113 
L 3513 0 
L 2938 0 
L 2938 2094 
Q 2938 2591 2744 2837 
Q 2550 3084 2163 3084 
Q 1697 3084 1428 2787 
Q 1159 2491 1159 1978 
L 1159 0 
L 581 0 
L 581 3500 
L 1159 3500 
L 1159 2956 
Q 1366 3272 1645 3428 
Q 1925 3584 2291 3584 
Q 2894 3584 3203 3211 
Q 3513 2838 3513 2113 
z
" transform="scale(0.015625)"/>
       </defs>
       <use xlink:href="#DejaVuSans-4c"/>
       <use xlink:href="#DejaVuSans-61" transform="translate(55.712891 0)"/>
       <use xlink:href="#DejaVuSans-73" transform="translate(116.992188 0)"/>
       <use xlink:href="#DejaVuSans-74" transform="translate(169.091797 0)"/>
       <use xlink:href="#DejaVuSans-2d" transform="translate(208.300781 0)"/>
       <use xlink:href="#DejaVuSans-77" transform="translate(244.384766 0)"/>
       <use xlink:href="#DejaVuSans-72" transform="translate(326.171875 0)"/>
       <use xlink:href="#DejaVuSans-69" transform="translate(367.285156 0)"/>
       <use xlink:href="#DejaVuSans-74" transform="translate(395.068359 0)"/>
       <use xlink:href="#DejaVuSans-65" transform="translate(434.277344 0)"/>
       <use xlink:href="#DejaVuSans-2d" transform="translate(495.800781 0)"/>
       <use xlink:href="#DejaVuSans-77" transform="translate(531.884766 0)"/>
       <use xlink:href="#DejaVuSans-69" transform="translate(613.671875 0)"/>
       <use xlink:href="#DejaVuSans-6e" transform="translate(641.455078 0)"/>
       <use xlink:href="#DejaVuSans-73" transform="translate(704.833984 0)"/>
      </g>
     </g>
    </g>
    <g id="xtick_2">
     <g id="line2d_2"/>
     <g id="text_2">
      <!-- Cloud-preferred -->
      <g style="fill: #111827" transform="translate(210.189658 331.11225) scale(0.09 -0.09)">
       <defs>
        <path id="DejaVuSans-43" d="M 4122 4306 
L 4122 3641 
Q 3803 3938 3442 4084 
Q 3081 4231 2675 4231 
Q 1875 4231 1450 3742 
Q 1025 3253 1025 2328 
Q 1025 1406 1450 917 
Q 1875 428 2675 428 
Q 3081 428 3442 575 
Q 3803 722 4122 1019 
L 4122 359 
Q 3791 134 3420 21 
Q 3050 -91 2638 -91 
Q 1578 -91 968 557 
Q 359 1206 359 2328 
Q 359 3453 968 4101 
Q 1578 4750 2638 4750 
Q 3056 4750 3426 4639 
Q 3797 4528 4122 4306 
z
" transform="scale(0.015625)"/>
        <path id="DejaVuSans-6c" d="M 603 4863 
L 1178 4863 
L 1178 0 
L 603 0 
L 603 4863 
z
" transform="scale(0.015625)"/>
        <path id="DejaVuSans-6f" d="M 1959 3097 
Q 1497 3097 1228 2736 
Q 959 2375 959 1747 
Q 959 1119 1226 758 
Q 1494 397 1959 397 
Q 2419 397 2687 759 
Q 2956 1122 2956 1747 
Q 2956 2369 2687 2733 
Q 2419 3097 1959 3097 
z
M 1959 3584 
Q 2709 3584 3137 3096 
Q 3566 2609 3566 1747 
Q 3566 888 3137 398 
Q 2709 -91 1959 -91 
Q 1206 -91 779 398 
Q 353 888 353 1747 
Q 353 2609 779 3096 
Q 1206 3584 1959 3584 
z
" transform="scale(0.015625)"/>
        <path id="DejaVuSans-75" d="M 544 1381 
L 544 3500 
L 1119 3500 
L 1119 1403 
Q 1119 906 1312 657 
Q 1506 409 1894 409 
Q 2359 409 2629 706 
Q 2900 1003 2900 1516 
L 2900 3500 
L 3475 3500 
L 3475 0 
L 2900 0 
L 2900 538 
Q 2691 219 2414 64 
Q 2138 -91 1772 -91 
Q 1169 -91 856 284 
Q 544 659 544 1381 
z
M 1991 3584 
L 1991 3584 
z
" transform="scale(0.015625)"/>
        <path id="DejaVuSans-64" d="M 2906 2969 
L 2906 4863 
L 3481 4863 
L 3481 0 
L 2906 0 
L 2906 525 
Q 2725 213 2448 61 
Q 2172 -91 1784 -91 
Q 1150 -91 751 415 
Q 353 922 353 1747 
Q 353 2572 751 3078 
Q 1150 3584 1784 3584 
Q 2172 3584 2448 3432 
Q 2725 3281 2906 2969 
z
M 947 1747 
Q 947 1113 1208 752 
Q 1469 391 1925 391 
Q 2381 391 2643 752 
Q 2906 1113 2906 1747 
Q 2906 2381 2643 2742 
Q 2381 3103 1925 3103 
Q 1469 3103 1208 2742 
Q 947 2381 947 1747 
z
" transform="scale(0.015625)"/>
        <path id="DejaVuSans-70" d="M 1159 525 
L 1159 -1331 
L 581 -1331 
L 581 3500 
L 1159 3500 
L 1159 2969 
Q 1341 3281 1617 3432 
Q 1894 3584 2278 3584 
Q 2916 3584 3314 3078 
Q 3713 2572 3713 1747 
Q 3713 922 3314 415 
Q 2916 -91 2278 -91 
Q 1894 -91 1617 61 
Q 1341 213 1159 525 
z
M 3116 1747 
Q 3116 2381 2855 2742 
Q 2594 3103 2138 3103 
Q 1681 3103 1420 2742 
Q 1159 2381 1159 1747 
Q 1159 1113 1420 752 
Q 1681 391 2138 391 
Q 2594 391 2855 752 
Q 3116 1113 3116 1747 
z
" transform="scale(0.015625)"/>
        <path id="DejaVuSans-66" d="M 2375 4863 
L 2375 4384 
L 1825 4384 
Q 1516 4384 1395 4259 
Q 1275 4134 1275 3809 
L 1275 3500 
L 2222 3500 
L 2222 3053 
L 1275 3053 
L 1275 0 
L 697 0 
L 697 3053 
L 147 3053 
L 147 3500 
L 697 3500 
L 697 3744 
Q 697 4328 969 4595 
Q 1241 4863 1831 4863 
L 2375 4863 
z
" transform="scale(0.015625)"/>
       </defs>
       <use xlink:href="#DejaVuSans-43"/>
       <use xlink:href="#DejaVuSans-6c" transform="translate(69.824219 0)"/>
       <use xlink:href="#DejaVuSans-6f" transform="translate(97.607422 0)"/>
       <use xlink:href="#DejaVuSans-75" transform="translate(158.789062 0)"/>
       <use xlink:href="#DejaVuSans-64" transform="translate(222.167969 0)"/>
       <use xlink:href="#DejaVuSans-2d" transform="translate(285.644531 0)"/>
       <use xlink:href="#DejaVuSans-70" transform="translate(321.728516 0)"/>
       <use xlink:href="#DejaVuSans-72" transform="translate(385.205078 0)"/>
       <use xlink:href="#DejaVuSans-65" transform="translate(424.068359 0)"/>
       <use xlink:href="#DejaVuSans-66" transform="translate(485.591797 0)"/>
       <use xlink:href="#DejaVuSans-65" transform="translate(520.796875 0)"/>
       <use xlink:href="#DejaVuSans-72" transform="translate(582.320312 0)"/>
       <use xlink:href="#DejaVuSans-72" transform="translate(621.683594 0)"/>
       <use xlink:href="#DejaVuSans-65" transform="translate(660.546875 0)"/>
       <use xlink:href="#DejaVuSans-64" transform="translate(722.070312 0)"/>
      </g>
     </g>
    </g>
    <g id="xtick_3">
     <g id="line2d_3"/>
     <g id="text_3">
      <!-- Display-preferred -->
      <g style="fill: #111827" transform="translate(329.777781 331.11225) scale(0.09 -0.09)">
       <defs>
        <path id="DejaVuSans-44" d="M 1259 4147 
L 1259 519 
L 2022 519 
Q 2988 519 3436 956 
Q 3884 1394 3884 2338 
Q 3884 3275 3436 3711 
Q 2988 4147 2022 4147 
L 1259 4147 
z
M 628 4666 
L 1925 4666 
Q 3281 4666 3915 4102 
Q 4550 3538 4550 2338 
Q 4550 1131 3912 565 
Q 3275 0 1925 0 
L 628 0 
L 628 4666 
z
" transform="scale(0.015625)"/>
        <path id="DejaVuSans-79" d="M 2059 -325 
Q 1816 -950 1584 -1140 
Q 1353 -1331 966 -1331 
L 506 -1331 
L 506 -850 
L 844 -850 
Q 1081 -850 1212 -737 
Q 1344 -625 1503 -206 
L 1606 56 
L 191 3500 
L 800 3500 
L 1894 763 
L 2988 3500 
L 3597 3500 
L 2059 -325 
z
" transform="scale(0.015625)"/>
       </defs>
       <use xlink:href="#DejaVuSans-44"/>
       <use xlink:href="#DejaVuSans-69" transform="translate(77.001953 0)"/>
       <use xlink:href="#DejaVuSans-73" transform="translate(104.785156 0)"/>
       <use xlink:href="#DejaVuSans-70" transform="translate(156.884766 0)"/>
       <use xlink:href="#DejaVuSans-6c" transform="translate(220.361328 0)"/>
       <use xlink:href="#DejaVuSans-61" transform="translate(248.144531 0)"/>
       <use xlink:href="#DejaVuSans-79" transform="translate(309.423828 0)"/>
       <use xlink:href="#DejaVuSans-2d" transform="translate(366.853516 0)"/>
       <use xlink:href="#DejaVuSans-70" transform="translate(402.9375 0)"/>
       <use xlink:href="#DejaVuSans-72" transform="translate(466.414062 0)"/>
       <use xlink:href="#DejaVuSans-65" transform="translate(505.277344 0)"/>
       <use xlink:href="#DejaVuSans-66" transform="translate(566.800781 0)"/>
       <use xlink:href="#DejaVuSans-65" transform="translate(602.005859 0)"/>
       <use xlink:href="#DejaVuSans-72" transform="translate(663.529297 0)"/>
       <use xlink:href="#DejaVuSans-72" transform="translate(702.892578 0)"/>
       <use xlink:href="#DejaVuSans-65" transform="translate(741.755859 0)"/>
       <use xlink:href="#DejaVuSans-64" transform="translate(803.279297 0)"/>
      </g>
     </g>
    </g>
    <g id="xtick_4">
     <g id="line2d_4"/>
     <g id="text_4">
      <!-- Manual review all -->
      <g style="fill: #111827" transform="translate(452.674811 331.11225) scale(0.09 -0.09)">
       <defs>
        <path id="DejaVuSans-4d" d="M 628 4666 
L 1569 4666 
L 2759 1491 
L 3956 4666 
L 4897 4666 
L 4897 0 
L 4281 0 
L 4281 4097 
L 3078 897 
L 2444 897 
L 1241 4097 
L 1241 0 
L 628 0 
L 628 4666 
z
" transform="scale(0.015625)"/>
        <path id="DejaVuSans-20" transform="scale(0.015625)"/>
        <path id="DejaVuSans-76" d="M 191 3500 
L 800 3500 
L 1894 563 
L 2988 3500 
L 3597 3500 
L 2284 0 
L 1503 0 
L 191 3500 
z
" transform="scale(0.015625)"/>
       </defs>
       <use xlink:href="#DejaVuSans-4d"/>
       <use xlink:href="#DejaVuSans-61" transform="translate(86.279297 0)"/>
       <use xlink:href="#DejaVuSans-6e" transform="translate(147.558594 0)"/>
       <use xlink:href="#DejaVuSans-75" transform="translate(210.9375 0)"/>
       <use xlink:href="#DejaVuSans-61" transform="translate(274.316406 0)"/>
       <use xlink:href="#DejaVuSans-6c" transform="translate(335.595703 0)"/>
       <use xlink:href="#DejaVuSans-20" transform="translate(363.378906 0)"/>
       <use xlink:href="#DejaVuSans-72" transform="translate(395.166016 0)"/>
       <use xlink:href="#DejaVuSans-65" transform="translate(434.029297 0)"/>
       <use xlink:href="#DejaVuSans-76" transform="translate(495.552734 0)"/>
       <use xlink:href="#DejaVuSans-69" transform="translate(554.732422 0)"/>
       <use xlink:href="#DejaVuSans-65" transform="translate(582.515625 0)"/>
       <use xlink:href="#DejaVuSans-77" transform="translate(644.039062 0)"/>
       <use xlink:href="#DejaVuSans-20" transform="translate(725.826172 0)"/>
       <use xlink:href="#DejaVuSans-61" transform="translate(757.613281 0)"/>
       <use xlink:href="#DejaVuSans-6c" transform="translate(818.892578 0)"/>
       <use xlink:href="#DejaVuSans-6c" transform="translate(846.675781 0)"/>
      </g>
     </g>
    </g>
    <g id="xtick_5">
     <g id="line2d_5"/>
     <g id="text_5">
      <!-- Domain-aware -->
      <g style="fill: #111827" transform="translate(582.469497 331.11225) scale(0.09 -0.09)">
       <defs>
        <path id="DejaVuSans-6d" d="M 3328 2828 
Q 3544 3216 3844 3400 
Q 4144 3584 4550 3584 
Q 5097 3584 5394 3201 
Q 5691 2819 5691 2113 
L 5691 0 
L 5113 0 
L 5113 2094 
Q 5113 2597 4934 2840 
Q 4756 3084 4391 3084 
Q 3944 3084 3684 2787 
Q 3425 2491 3425 1978 
L 3425 0 
L 2847 0 
L 2847 2094 
Q 2847 2600 2669 2842 
Q 2491 3084 2119 3084 
Q 1678 3084 1418 2786 
Q 1159 2488 1159 1978 
L 1159 0 
L 581 0 
L 581 3500 
L 1159 3500 
L 1159 2956 
Q 1356 3278 1631 3431 
Q 1906 3584 2284 3584 
Q 2666 3584 2933 3390 
Q 3200 3197 3328 2828 
z
" transform="scale(0.015625)"/>
       </defs>
       <use xlink:href="#DejaVuSans-44"/>
       <use xlink:href="#DejaVuSans-6f" transform="translate(77.001953 0)"/>
       <use xlink:href="#DejaVuSans-6d" transform="translate(138.183594 0)"/>
       <use xlink:href="#DejaVuSans-61" transform="translate(235.595703 0)"/>
       <use xlink:href="#DejaVuSans-69" transform="translate(296.875 0)"/>
       <use xlink:href="#DejaVuSans-6e" transform="translate(324.658203 0)"/>
       <use xlink:href="#DejaVuSans-2d" transform="translate(388.037109 0)"/>
       <use xlink:href="#DejaVuSans-61" transform="translate(424.121094 0)"/>
       <use xlink:href="#DejaVuSans-77" transform="translate(485.400391 0)"/>
       <use xlink:href="#DejaVuSans-61" transform="translate(567.1875 0)"/>
       <use xlink:href="#DejaVuSans-72" transform="translate(628.466797 0)"/>
       <use xlink:href="#DejaVuSans-65" transform="translate(667.330078 0)"/>
      </g>
     </g>
    </g>
   </g>
   <g id="matplotlib.axis_2">
    <g id="ytick_1">
     <g id="line2d_6">
      <path d="M 42.190938 320.773656 
L 695.374937 320.773656 
" clip-path="url(#p66896cc0f6)" style="fill: none; stroke: #e5e7eb; stroke-width: 0.8; stroke-linecap: square"/>
     </g>
     <g id="line2d_7">
      <defs>
       <path id="m040e535126" d="M 0 0 
L -3.5 0 
" style="stroke: #374151; stroke-width: 0.8"/>
      </defs>
      <g>
       <use xlink:href="#m040e535126" x="42.190938" y="320.773656" style="fill: #374151; stroke: #374151; stroke-width: 0.8"/>
      </g>
     </g>
     <g id="text_6">
      <!-- 0.0 -->
      <g style="fill: #374151" transform="translate(20.878125 324.192953) scale(0.09 -0.09)">
       <defs>
        <path id="DejaVuSans-30" d="M 2034 4250 
Q 1547 4250 1301 3770 
Q 1056 3291 1056 2328 
Q 1056 1369 1301 889 
Q 1547 409 2034 409 
Q 2525 409 2770 889 
Q 3016 1369 3016 2328 
Q 3016 3291 2770 3770 
Q 2525 4250 2034 4250 
z
M 2034 4750 
Q 2819 4750 3233 4129 
Q 3647 3509 3647 2328 
Q 3647 1150 3233 529 
Q 2819 -91 2034 -91 
Q 1250 -91 836 529 
Q 422 1150 422 2328 
Q 422 3509 836 4129 
Q 1250 4750 2034 4750 
z
" transform="scale(0.015625)"/>
        <path id="DejaVuSans-2e" d="M 684 794 
L 1344 794 
L 1344 0 
L 684 0 
L 684 794 
z
" transform="scale(0.015625)"/>
       </defs>
       <use xlink:href="#DejaVuSans-30"/>
       <use xlink:href="#DejaVuSans-2e" transform="translate(63.623047 0)"/>
       <use xlink:href="#DejaVuSans-30" transform="translate(95.410156 0)"/>
      </g>
     </g>
    </g>
    <g id="ytick_2">
     <g id="line2d_8">
      <path d="M 42.190938 264.65819 
L 695.374937 264.65819 
" clip-path="url(#p66896cc0f6)" style="fill: none; stroke: #e5e7eb; stroke-width: 0.8; stroke-linecap: square"/>
     </g>
     <g id="line2d_9">
      <g>
       <use xlink:href="#m040e535126" x="42.190938" y="264.65819" style="fill: #374151; stroke: #374151; stroke-width: 0.8"/>
      </g>
     </g>
     <g id="text_7">
      <!-- 0.2 -->
      <g style="fill: #374151" transform="translate(20.878125 268.077487) scale(0.09 -0.09)">
       <defs>
        <path id="DejaVuSans-32" d="M 1228 531 
L 3431 531 
L 3431 0 
L 469 0 
L 469 531 
Q 828 903 1448 1529 
Q 2069 2156 2228 2338 
Q 2531 2678 2651 2914 
Q 2772 3150 2772 3378 
Q 2772 3750 2511 3984 
Q 2250 4219 1831 4219 
Q 1534 4219 1204 4116 
Q 875 4013 500 3803 
L 500 4441 
Q 881 4594 1212 4672 
Q 1544 4750 1819 4750 
Q 2544 4750 2975 4387 
Q 3406 4025 3406 3419 
Q 3406 3131 3298 2873 
Q 3191 2616 2906 2266 
Q 2828 2175 2409 1742 
Q 1991 1309 1228 531 
z
" transform="scale(0.015625)"/>
       </defs>
       <use xlink:href="#DejaVuSans-30"/>
       <use xlink:href="#DejaVuSans-2e" transform="translate(63.623047 0)"/>
       <use xlink:href="#DejaVuSans-32" transform="translate(95.410156 0)"/>
      </g>
     </g>
    </g>
    <g id="ytick_3">
     <g id="line2d_10">
      <path d="M 42.190938 208.542723 
L 695.374937 208.542723 
" clip-path="url(#p66896cc0f6)" style="fill: none; stroke: #e5e7eb; stroke-width: 0.8; stroke-linecap: square"/>
     </g>
     <g id="line2d_11">
      <g>
       <use xlink:href="#m040e535126" x="42.190938" y="208.542723" style="fill: #374151; stroke: #374151; stroke-width: 0.8"/>
      </g>
     </g>
     <g id="text_8">
      <!-- 0.4 -->
      <g style="fill: #374151" transform="translate(20.878125 211.96202) scale(0.09 -0.09)">
       <defs>
        <path id="DejaVuSans-34" d="M 2419 4116 
L 825 1625 
L 2419 1625 
L 2419 4116 
z
M 2253 4666 
L 3047 4666 
L 3047 1625 
L 3713 1625 
L 3713 1100 
L 3047 1100 
L 3047 0 
L 2419 0 
L 2419 1100 
L 313 1100 
L 313 1709 
L 2253 4666 
z
" transform="scale(0.015625)"/>
       </defs>
       <use xlink:href="#DejaVuSans-30"/>
       <use xlink:href="#DejaVuSans-2e" transform="translate(63.623047 0)"/>
       <use xlink:href="#DejaVuSans-34" transform="translate(95.410156 0)"/>
      </g>
     </g>
    </g>
    <g id="ytick_4">
     <g id="line2d_12">
      <path d="M 42.190938 152.427257 
L 695.374937 152.427257 
" clip-path="url(#p66896cc0f6)" style="fill: none; stroke: #e5e7eb; stroke-width: 0.8; stroke-linecap: square"/>
     </g>
     <g id="line2d_13">
      <g>
       <use xlink:href="#m040e535126" x="42.190938" y="152.427257" style="fill: #374151; stroke: #374151; stroke-width: 0.8"/>
      </g>
     </g>
     <g id="text_9">
      <!-- 0.6 -->
      <g style="fill: #374151" transform="translate(20.878125 155.846554) scale(0.09 -0.09)">
       <defs>
        <path id="DejaVuSans-36" d="M 2113 2584 
Q 1688 2584 1439 2293 
Q 1191 2003 1191 1497 
Q 1191 994 1439 701 
Q 1688 409 2113 409 
Q 2538 409 2786 701 
Q 3034 994 3034 1497 
Q 3034 2003 2786 2293 
Q 2538 2584 2113 2584 
z
M 3366 4563 
L 3366 3988 
Q 3128 4100 2886 4159 
Q 2644 4219 2406 4219 
Q 1781 4219 1451 3797 
Q 1122 3375 1075 2522 
Q 1259 2794 1537 2939 
Q 1816 3084 2150 3084 
Q 2853 3084 3261 2657 
Q 3669 2231 3669 1497 
Q 3669 778 3244 343 
Q 2819 -91 2113 -91 
Q 1303 -91 875 529 
Q 447 1150 447 2328 
Q 447 3434 972 4092 
Q 1497 4750 2381 4750 
Q 2619 4750 2861 4703 
Q 3103 4656 3366 4563 
z
" transform="scale(0.015625)"/>
       </defs>
       <use xlink:href="#DejaVuSans-30"/>
       <use xlink:href="#DejaVuSans-2e" transform="translate(63.623047 0)"/>
       <use xlink:href="#DejaVuSans-36" transform="translate(95.410156 0)"/>
      </g>
     </g>
    </g>
    <g id="ytick_5">
     <g id="line2d_14">
      <path d="M 42.190938 96.31179 
L 695.374937 96.31179 
" clip-path="url(#p66896cc0f6)" style="fill: none; stroke: #e5e7eb; stroke-width: 0.8; stroke-linecap: square"/>
     </g>
     <g id="line2d_15">
      <g>
       <use xlink:href="#m040e535126" x="42.190938" y="96.31179" style="fill: #374151; stroke: #374151; stroke-width: 0.8"/>
      </g>
     </g>
     <g id="text_10">
      <!-- 0.8 -->
      <g style="fill: #374151" transform="translate(20.878125 99.731087) scale(0.09 -0.09)">
       <defs>
        <path id="DejaVuSans-38" d="M 2034 2216 
Q 1584 2216 1326 1975 
Q 1069 1734 1069 1313 
Q 1069 891 1326 650 
Q 1584 409 2034 409 
Q 2484 409 2743 651 
Q 3003 894 3003 1313 
Q 3003 1734 2745 1975 
Q 2488 2216 2034 2216 
z
M 1403 2484 
Q 997 2584 770 2862 
Q 544 3141 544 3541 
Q 544 4100 942 4425 
Q 1341 4750 2034 4750 
Q 2731 4750 3128 4425 
Q 3525 4100 3525 3541 
Q 3525 3141 3298 2862 
Q 3072 2584 2669 2484 
Q 3125 2378 3379 2068 
Q 3634 1759 3634 1313 
Q 3634 634 3220 271 
Q 2806 -91 2034 -91 
Q 1263 -91 848 271 
Q 434 634 434 1313 
Q 434 1759 690 2068 
Q 947 2378 1403 2484 
z
M 1172 3481 
Q 1172 3119 1398 2916 
Q 1625 2713 2034 2713 
Q 2441 2713 2670 2916 
Q 2900 3119 2900 3481 
Q 2900 3844 2670 4047 
Q 2441 4250 2034 4250 
Q 1625 4250 1398 4047 
Q 1172 3844 1172 3481 
z
" transform="scale(0.015625)"/>
       </defs>
       <use xlink:href="#DejaVuSans-30"/>
       <use xlink:href="#DejaVuSans-2e" transform="translate(63.623047 0)"/>
       <use xlink:href="#DejaVuSans-38" transform="translate(95.410156 0)"/>
      </g>
     </g>
    </g>
    <g id="text_11">
     <!-- Mean high-risk silent overwrites per run -->
     <g style="fill: #111827" transform="translate(14.798437 283.516906) rotate(-90) scale(0.1 -0.1)">
      <defs>
       <path id="DejaVuSans-68" d="M 3513 2113 
L 3513 0 
L 2938 0 
L 2938 2094 
Q 2938 2591 2744 2837 
Q 2550 3084 2163 3084 
Q 1697 3084 1428 2787 
Q 1159 2491 1159 1978 
L 1159 0 
L 581 0 
L 581 4863 
L 1159 4863 
L 1159 2956 
Q 1366 3272 1645 3428 
Q 1925 3584 2291 3584 
Q 2894 3584 3203 3211 
Q 3513 2838 3513 2113 
z
" transform="scale(0.015625)"/>
       <path id="DejaVuSans-67" d="M 2906 1791 
Q 2906 2416 2648 2759 
Q 2391 3103 1925 3103 
Q 1463 3103 1205 2759 
Q 947 2416 947 1791 
Q 947 1169 1205 825 
Q 1463 481 1925 481 
Q 2391 481 2648 825 
Q 2906 1169 2906 1791 
z
M 3481 434 
Q 3481 -459 3084 -895 
Q 2688 -1331 1869 -1331 
Q 1566 -1331 1297 -1286 
Q 1028 -1241 775 -1147 
L 775 -588 
Q 1028 -725 1275 -790 
Q 1522 -856 1778 -856 
Q 2344 -856 2625 -561 
Q 2906 -266 2906 331 
L 2906 616 
Q 2728 306 2450 153 
Q 2172 0 1784 0 
Q 1141 0 747 490 
Q 353 981 353 1791 
Q 353 2603 747 3093 
Q 1141 3584 1784 3584 
Q 2172 3584 2450 3431 
Q 2728 3278 2906 2969 
L 2906 3500 
L 3481 3500 
L 3481 434 
z
" transform="scale(0.015625)"/>
       <path id="DejaVuSans-6b" d="M 581 4863 
L 1159 4863 
L 1159 1991 
L 2875 3500 
L 3609 3500 
L 1753 1863 
L 3688 0 
L 2938 0 
L 1159 1709 
L 1159 0 
L 581 0 
L 581 4863 
z
" transform="scale(0.015625)"/>
      </defs>
      <use xlink:href="#DejaVuSans-4d"/>
      <use xlink:href="#DejaVuSans-65" transform="translate(86.279297 0)"/>
      <use xlink:href="#DejaVuSans-61" transform="translate(147.802734 0)"/>
      <use xlink:href="#DejaVuSans-6e" transform="translate(209.082031 0)"/>
      <use xlink:href="#DejaVuSans-20" transform="translate(272.460938 0)"/>
      <use xlink:href="#DejaVuSans-68" transform="translate(304.248047 0)"/>
      <use xlink:href="#DejaVuSans-69" transform="translate(367.626953 0)"/>
      <use xlink:href="#DejaVuSans-67" transform="translate(395.410156 0)"/>
      <use xlink:href="#DejaVuSans-68" transform="translate(458.886719 0)"/>
      <use xlink:href="#DejaVuSans-2d" transform="translate(522.265625 0)"/>
      <use xlink:href="#DejaVuSans-72" transform="translate(558.349609 0)"/>
      <use xlink:href="#DejaVuSans-69" transform="translate(599.462891 0)"/>
      <use xlink:href="#DejaVuSans-73" transform="translate(627.246094 0)"/>
      <use xlink:href="#DejaVuSans-6b" transform="translate(679.345703 0)"/>
      <use xlink:href="#DejaVuSans-20" transform="translate(737.255859 0)"/>
      <use xlink:href="#DejaVuSans-73" transform="translate(769.042969 0)"/>
      <use xlink:href="#DejaVuSans-69" transform="translate(821.142578 0)"/>
      <use xlink:href="#DejaVuSans-6c" transform="translate(848.925781 0)"/>
      <use xlink:href="#DejaVuSans-65" transform="translate(876.708984 0)"/>
      <use xlink:href="#DejaVuSans-6e" transform="translate(938.232422 0)"/>
      <use xlink:href="#DejaVuSans-74" transform="translate(1001.611328 0)"/>
      <use xlink:href="#DejaVuSans-20" transform="translate(1040.820312 0)"/>
      <use xlink:href="#DejaVuSans-6f" transform="translate(1072.607422 0)"/>
      <use xlink:href="#DejaVuSans-76" transform="translate(1133.789062 0)"/>
      <use xlink:href="#DejaVuSans-65" transform="translate(1192.96875 0)"/>
      <use xlink:href="#DejaVuSans-72" transform="translate(1254.492188 0)"/>
      <use xlink:href="#DejaVuSans-77" transform="translate(1295.605469 0)"/>
      <use xlink:href="#DejaVuSans-72" transform="translate(1377.392578 0)"/>
      <use xlink:href="#DejaVuSans-69" transform="translate(1418.505859 0)"/>
      <use xlink:href="#DejaVuSans-74" transform="translate(1446.289062 0)"/>
      <use xlink:href="#DejaVuSans-65" transform="translate(1485.498047 0)"/>
      <use xlink:href="#DejaVuSans-73" transform="translate(1547.021484 0)"/>
      <use xlink:href="#DejaVuSans-20" transform="translate(1599.121094 0)"/>
      <use xlink:href="#DejaVuSans-70" transform="translate(1630.908203 0)"/>
      <use xlink:href="#DejaVuSans-65" transform="translate(1694.384766 0)"/>
      <use xlink:href="#DejaVuSans-72" transform="translate(1755.908203 0)"/>
      <use xlink:href="#DejaVuSans-20" transform="translate(1797.021484 0)"/>
      <use xlink:href="#DejaVuSans-72" transform="translate(1828.808594 0)"/>
      <use xlink:href="#DejaVuSans-75" transform="translate(1869.921875 0)"/>
      <use xlink:href="#DejaVuSans-6e" transform="translate(1933.300781 0)"/>
     </g>
    </g>
   </g>
   <g id="patch_3">
    <path d="M 77.931194 320.773656 
L 166.665624 320.773656 
L 166.665624 104.220985 
L 77.931194 104.220985 
z
" clip-path="url(#p66896cc0f6)" style="fill: #4e79a7"/>
   </g>
   <g id="patch_4">
    <path d="M 201.173458 320.773656 
L 289.907888 320.773656 
L 289.907888 105.221804 
L 201.173458 105.221804 
z
" clip-path="url(#p66896cc0f6)" style="fill: #f28e2b"/>
   </g>
   <g id="patch_5">
    <path d="M 324.415722 320.773656 
L 413.150153 320.773656 
L 413.150153 99.313968 
L 324.415722 99.313968 
z
" clip-path="url(#p66896cc0f6)" style="fill: #e15759"/>
   </g>
   <g id="patch_6">
    <path d="M 447.657987 320.773656 
L 536.392417 320.773656 
L 536.392417 320.773656 
L 447.657987 320.773656 
z
" clip-path="url(#p66896cc0f6)" style="fill: #59a14f"/>
   </g>
   <g id="patch_7">
    <path d="M 570.900251 320.773656 
L 659.634681 320.773656 
L 659.634681 320.773656 
L 570.900251 320.773656 
z
" clip-path="url(#p66896cc0f6)" style="fill: #8e6bbe"/>
   </g>
   <g id="LineCollection_1">
    <path d="M 122.298409 114.742073 
L 122.298409 93.699896 
" clip-path="url(#p66896cc0f6)" style="fill: none; stroke: #111827; stroke-width: 1.4"/>
    <path d="M 245.540673 115.663489 
L 245.540673 94.780119 
" clip-path="url(#p66896cc0f6)" style="fill: none; stroke: #111827; stroke-width: 1.4"/>
    <path d="M 368.782938 110.206821 
L 368.782938 88.421114 
" clip-path="url(#p66896cc0f6)" style="fill: none; stroke: #111827; stroke-width: 1.4"/>
    <path d="M 492.025202 320.773656 
L 492.025202 320.773656 
" clip-path="url(#p66896cc0f6)" style="fill: none; stroke: #111827; stroke-width: 1.4"/>
    <path d="M 615.267466 320.773656 
L 615.267466 320.773656 
" clip-path="url(#p66896cc0f6)" style="fill: none; stroke: #111827; stroke-width: 1.4"/>
   </g>
   <g id="line2d_16">
    <defs>
     <path id="ma63bc75936" d="M 4 0 
L -4 -0 
" style="stroke: #111827; stroke-width: 1.4"/>
    </defs>
    <g clip-path="url(#p66896cc0f6)">
     <use xlink:href="#ma63bc75936" x="122.298409" y="114.742073" style="fill: #1f77b4; stroke: #111827; stroke-width: 1.4"/>
     <use xlink:href="#ma63bc75936" x="245.540673" y="115.663489" style="fill: #1f77b4; stroke: #111827; stroke-width: 1.4"/>
     <use xlink:href="#ma63bc75936" x="368.782938" y="110.206821" style="fill: #1f77b4; stroke: #111827; stroke-width: 1.4"/>
     <use xlink:href="#ma63bc75936" x="492.025202" y="320.773656" style="fill: #1f77b4; stroke: #111827; stroke-width: 1.4"/>
     <use xlink:href="#ma63bc75936" x="615.267466" y="320.773656" style="fill: #1f77b4; stroke: #111827; stroke-width: 1.4"/>
    </g>
   </g>
   <g id="line2d_17">
    <g clip-path="url(#p66896cc0f6)">
     <use xlink:href="#ma63bc75936" x="122.298409" y="93.699896" style="fill: #1f77b4; stroke: #111827; stroke-width: 1.4"/>
     <use xlink:href="#ma63bc75936" x="245.540673" y="94.780119" style="fill: #1f77b4; stroke: #111827; stroke-width: 1.4"/>
     <use xlink:href="#ma63bc75936" x="368.782938" y="88.421114" style="fill: #1f77b4; stroke: #111827; stroke-width: 1.4"/>
     <use xlink:href="#ma63bc75936" x="492.025202" y="320.773656" style="fill: #1f77b4; stroke: #111827; stroke-width: 1.4"/>
     <use xlink:href="#ma63bc75936" x="615.267466" y="320.773656" style="fill: #1f77b4; stroke: #111827; stroke-width: 1.4"/>
    </g>
   </g>
   <g id="patch_8">
    <path d="M 42.190938 320.773656 
L 42.190938 46.597656 
" style="fill: none; stroke: #111827; stroke-width: 0.8; stroke-linejoin: miter; stroke-linecap: square"/>
   </g>
   <g id="patch_9">
    <path d="M 42.190938 320.773656 
L 695.374937 320.773656 
" style="fill: none; stroke: #111827; stroke-width: 0.8; stroke-linejoin: miter; stroke-linecap: square"/>
   </g>
   <g id="text_12">
    <!-- Means across 14,580 runs per policy; lower values indicate fewer undesirable outcomes. -->
    <g style="fill: #4b5563" transform="translate(146.406375 37.663569) scale(0.1 -0.1)">
     <defs>
      <path id="DejaVuSans-63" d="M 3122 3366 
L 3122 2828 
Q 2878 2963 2633 3030 
Q 2388 3097 2138 3097 
Q 1578 3097 1268 2742 
Q 959 2388 959 1747 
Q 959 1106 1268 751 
Q 1578 397 2138 397 
Q 2388 397 2633 464 
Q 2878 531 3122 666 
L 3122 134 
Q 2881 22 2623 -34 
Q 2366 -91 2075 -91 
Q 1284 -91 818 406 
Q 353 903 353 1747 
Q 353 2603 823 3093 
Q 1294 3584 2113 3584 
Q 2378 3584 2631 3529 
Q 2884 3475 3122 3366 
z
" transform="scale(0.015625)"/>
      <path id="DejaVuSans-31" d="M 794 531 
L 1825 531 
L 1825 4091 
L 703 3866 
L 703 4441 
L 1819 4666 
L 2450 4666 
L 2450 531 
L 3481 531 
L 3481 0 
L 794 0 
L 794 531 
z
" transform="scale(0.015625)"/>
      <path id="DejaVuSans-2c" d="M 750 794 
L 1409 794 
L 1409 256 
L 897 -744 
L 494 -744 
L 750 256 
L 750 794 
z
" transform="scale(0.015625)"/>
      <path id="DejaVuSans-35" d="M 691 4666 
L 3169 4666 
L 3169 4134 
L 1269 4134 
L 1269 2991 
Q 1406 3038 1543 3061 
Q 1681 3084 1819 3084 
Q 2600 3084 3056 2656 
Q 3513 2228 3513 1497 
Q 3513 744 3044 326 
Q 2575 -91 1722 -91 
Q 1428 -91 1123 -41 
Q 819 9 494 109 
L 494 744 
Q 775 591 1075 516 
Q 1375 441 1709 441 
Q 2250 441 2565 725 
Q 2881 1009 2881 1497 
Q 2881 1984 2565 2268 
Q 2250 2553 1709 2553 
Q 1456 2553 1204 2497 
Q 953 2441 691 2322 
L 691 4666 
z
" transform="scale(0.015625)"/>
      <path id="DejaVuSans-3b" d="M 750 3309 
L 1409 3309 
L 1409 2516 
L 750 2516 
L 750 3309 
z
M 750 794 
L 1409 794 
L 1409 256 
L 897 -744 
L 494 -744 
L 750 256 
L 750 794 
z
" transform="scale(0.015625)"/>
      <path id="DejaVuSans-62" d="M 3116 1747 
Q 3116 2381 2855 2742 
Q 2594 3103 2138 3103 
Q 1681 3103 1420 2742 
Q 1159 2381 1159 1747 
Q 1159 1113 1420 752 
Q 1681 391 2138 391 
Q 2594 391 2855 752 
Q 3116 1113 3116 1747 
z
M 1159 2969 
Q 1341 3281 1617 3432 
Q 1894 3584 2278 3584 
Q 2916 3584 3314 3078 
Q 3713 2572 3713 1747 
Q 3713 922 3314 415 
Q 2916 -91 2278 -91 
Q 1894 -91 1617 61 
Q 1341 213 1159 525 
L 1159 0 
L 581 0 
L 581 4863 
L 1159 4863 
L 1159 2969 
z
" transform="scale(0.015625)"/>
     </defs>
     <use xlink:href="#DejaVuSans-4d"/>
     <use xlink:href="#DejaVuSans-65" transform="translate(86.279297 0)"/>
     <use xlink:href="#DejaVuSans-61" transform="translate(147.802734 0)"/>
     <use xlink:href="#DejaVuSans-6e" transform="translate(209.082031 0)"/>
     <use xlink:href="#DejaVuSans-73" transform="translate(272.460938 0)"/>
     <use xlink:href="#DejaVuSans-20" transform="translate(324.560547 0)"/>
     <use xlink:href="#DejaVuSans-61" transform="translate(356.347656 0)"/>
     <use xlink:href="#DejaVuSans-63" transform="translate(417.626953 0)"/>
     <use xlink:href="#DejaVuSans-72" transform="translate(472.607422 0)"/>
     <use xlink:href="#DejaVuSans-6f" transform="translate(511.470703 0)"/>
     <use xlink:href="#DejaVuSans-73" transform="translate(572.652344 0)"/>
     <use xlink:href="#DejaVuSans-73" transform="translate(624.751953 0)"/>
     <use xlink:href="#DejaVuSans-20" transform="translate(676.851562 0)"/>
     <use xlink:href="#DejaVuSans-31" transform="translate(708.638672 0)"/>
     <use xlink:href="#DejaVuSans-34" transform="translate(772.261719 0)"/>
     <use xlink:href="#DejaVuSans-2c" transform="translate(835.884766 0)"/>
     <use xlink:href="#DejaVuSans-35" transform="translate(867.671875 0)"/>
     <use xlink:href="#DejaVuSans-38" transform="translate(931.294922 0)"/>
     <use xlink:href="#DejaVuSans-30" transform="translate(994.917969 0)"/>
     <use xlink:href="#DejaVuSans-20" transform="translate(1058.541016 0)"/>
     <use xlink:href="#DejaVuSans-72" transform="translate(1090.328125 0)"/>
     <use xlink:href="#DejaVuSans-75" transform="translate(1131.441406 0)"/>
     <use xlink:href="#DejaVuSans-6e" transform="translate(1194.820312 0)"/>
     <use xlink:href="#DejaVuSans-73" transform="translate(1258.199219 0)"/>
     <use xlink:href="#DejaVuSans-20" transform="translate(1310.298828 0)"/>
     <use xlink:href="#DejaVuSans-70" transform="translate(1342.085938 0)"/>
     <use xlink:href="#DejaVuSans-65" transform="translate(1405.5625 0)"/>
     <use xlink:href="#DejaVuSans-72" transform="translate(1467.085938 0)"/>
     <use xlink:href="#DejaVuSans-20" transform="translate(1508.199219 0)"/>
     <use xlink:href="#DejaVuSans-70" transform="translate(1539.986328 0)"/>
     <use xlink:href="#DejaVuSans-6f" transform="translate(1603.462891 0)"/>
     <use xlink:href="#DejaVuSans-6c" transform="translate(1664.644531 0)"/>
     <use xlink:href="#DejaVuSans-69" transform="translate(1692.427734 0)"/>
     <use xlink:href="#DejaVuSans-63" transform="translate(1720.210938 0)"/>
     <use xlink:href="#DejaVuSans-79" transform="translate(1775.191406 0)"/>
     <use xlink:href="#DejaVuSans-3b" transform="translate(1834.371094 0)"/>
     <use xlink:href="#DejaVuSans-20" transform="translate(1868.0625 0)"/>
     <use xlink:href="#DejaVuSans-6c" transform="translate(1899.849609 0)"/>
     <use xlink:href="#DejaVuSans-6f" transform="translate(1927.632812 0)"/>
     <use xlink:href="#DejaVuSans-77" transform="translate(1988.814453 0)"/>
     <use xlink:href="#DejaVuSans-65" transform="translate(2070.601562 0)"/>
     <use xlink:href="#DejaVuSans-72" transform="translate(2132.125 0)"/>
     <use xlink:href="#DejaVuSans-20" transform="translate(2173.238281 0)"/>
     <use xlink:href="#DejaVuSans-76" transform="translate(2205.025391 0)"/>
     <use xlink:href="#DejaVuSans-61" transform="translate(2264.205078 0)"/>
     <use xlink:href="#DejaVuSans-6c" transform="translate(2325.484375 0)"/>
     <use xlink:href="#DejaVuSans-75" transform="translate(2353.267578 0)"/>
     <use xlink:href="#DejaVuSans-65" transform="translate(2416.646484 0)"/>
     <use xlink:href="#DejaVuSans-73" transform="translate(2478.169922 0)"/>
     <use xlink:href="#DejaVuSans-20" transform="translate(2530.269531 0)"/>
     <use xlink:href="#DejaVuSans-69" transform="translate(2562.056641 0)"/>
     <use xlink:href="#DejaVuSans-6e" transform="translate(2589.839844 0)"/>
     <use xlink:href="#DejaVuSans-64" transform="translate(2653.21875 0)"/>
     <use xlink:href="#DejaVuSans-69" transform="translate(2716.695312 0)"/>
     <use xlink:href="#DejaVuSans-63" transform="translate(2744.478516 0)"/>
     <use xlink:href="#DejaVuSans-61" transform="translate(2799.458984 0)"/>
     <use xlink:href="#DejaVuSans-74" transform="translate(2860.738281 0)"/>
     <use xlink:href="#DejaVuSans-65" transform="translate(2899.947266 0)"/>
     <use xlink:href="#DejaVuSans-20" transform="translate(2961.470703 0)"/>
     <use xlink:href="#DejaVuSans-66" transform="translate(2993.257812 0)"/>
     <use xlink:href="#DejaVuSans-65" transform="translate(3028.462891 0)"/>
     <use xlink:href="#DejaVuSans-77" transform="translate(3089.986328 0)"/>
     <use xlink:href="#DejaVuSans-65" transform="translate(3171.773438 0)"/>
     <use xlink:href="#DejaVuSans-72" transform="translate(3233.296875 0)"/>
     <use xlink:href="#DejaVuSans-20" transform="translate(3274.410156 0)"/>
     <use xlink:href="#DejaVuSans-75" transform="translate(3306.197266 0)"/>
     <use xlink:href="#DejaVuSans-6e" transform="translate(3369.576172 0)"/>
     <use xlink:href="#DejaVuSans-64" transform="translate(3432.955078 0)"/>
     <use xlink:href="#DejaVuSans-65" transform="translate(3496.431641 0)"/>
     <use xlink:href="#DejaVuSans-73" transform="translate(3557.955078 0)"/>
     <use xlink:href="#DejaVuSans-69" transform="translate(3610.054688 0)"/>
     <use xlink:href="#DejaVuSans-72" transform="translate(3637.837891 0)"/>
     <use xlink:href="#DejaVuSans-61" transform="translate(3678.951172 0)"/>
     <use xlink:href="#DejaVuSans-62" transform="translate(3740.230469 0)"/>
     <use xlink:href="#DejaVuSans-6c" transform="translate(3803.707031 0)"/>
     <use xlink:href="#DejaVuSans-65" transform="translate(3831.490234 0)"/>
     <use xlink:href="#DejaVuSans-20" transform="translate(3893.013672 0)"/>
     <use xlink:href="#DejaVuSans-6f" transform="translate(3924.800781 0)"/>
     <use xlink:href="#DejaVuSans-75" transform="translate(3985.982422 0)"/>
     <use xlink:href="#DejaVuSans-74" transform="translate(4049.361328 0)"/>
     <use xlink:href="#DejaVuSans-63" transform="translate(4088.570312 0)"/>
     <use xlink:href="#DejaVuSans-6f" transform="translate(4143.550781 0)"/>
     <use xlink:href="#DejaVuSans-6d" transform="translate(4204.732422 0)"/>
     <use xlink:href="#DejaVuSans-65" transform="translate(4302.144531 0)"/>
     <use xlink:href="#DejaVuSans-73" transform="translate(4363.667969 0)"/>
     <use xlink:href="#DejaVuSans-2e" transform="translate(4415.767578 0)"/>
    </g>
   </g>
   <g id="text_13">
    <!-- 0.77 -->
    <g style="fill: #111827" transform="translate(111.196065 84.973777) scale(0.09 -0.09)">
     <defs>
      <path id="DejaVuSans-Bold-30" d="M 2944 2338 
Q 2944 3213 2780 3570 
Q 2616 3928 2228 3928 
Q 1841 3928 1675 3570 
Q 1509 3213 1509 2338 
Q 1509 1453 1675 1090 
Q 1841 728 2228 728 
Q 2613 728 2778 1090 
Q 2944 1453 2944 2338 
z
M 4147 2328 
Q 4147 1169 3647 539 
Q 3147 -91 2228 -91 
Q 1306 -91 806 539 
Q 306 1169 306 2328 
Q 306 3491 806 4120 
Q 1306 4750 2228 4750 
Q 3147 4750 3647 4120 
Q 4147 3491 4147 2328 
z
" transform="scale(0.015625)"/>
      <path id="DejaVuSans-Bold-2e" d="M 653 1209 
L 1778 1209 
L 1778 0 
L 653 0 
L 653 1209 
z
" transform="scale(0.015625)"/>
      <path id="DejaVuSans-Bold-37" d="M 428 4666 
L 3944 4666 
L 3944 3988 
L 2125 0 
L 953 0 
L 2675 3781 
L 428 3781 
L 428 4666 
z
" transform="scale(0.015625)"/>
     </defs>
     <use xlink:href="#DejaVuSans-Bold-30"/>
     <use xlink:href="#DejaVuSans-Bold-2e" transform="translate(69.580078 0)"/>
     <use xlink:href="#DejaVuSans-Bold-37" transform="translate(107.568359 0)"/>
     <use xlink:href="#DejaVuSans-Bold-37" transform="translate(177.148438 0)"/>
    </g>
   </g>
   <g id="text_14">
    <!-- 0.77 -->
    <g style="fill: #111827" transform="translate(234.43833 86.054) scale(0.09 -0.09)">
     <use xlink:href="#DejaVuSans-Bold-30"/>
     <use xlink:href="#DejaVuSans-Bold-2e" transform="translate(69.580078 0)"/>
     <use xlink:href="#DejaVuSans-Bold-37" transform="translate(107.568359 0)"/>
     <use xlink:href="#DejaVuSans-Bold-37" transform="translate(177.148438 0)"/>
    </g>
   </g>
   <g id="text_15">
    <!-- 0.79 -->
    <g style="fill: #111827" transform="translate(357.680594 79.694995) scale(0.09 -0.09)">
     <defs>
      <path id="DejaVuSans-Bold-39" d="M 641 103 
L 641 966 
Q 928 831 1190 764 
Q 1453 697 1709 697 
Q 2247 697 2547 995 
Q 2847 1294 2900 1881 
Q 2688 1725 2447 1647 
Q 2206 1569 1925 1569 
Q 1209 1569 770 1986 
Q 331 2403 331 3084 
Q 331 3838 820 4291 
Q 1309 4744 2131 4744 
Q 3044 4744 3544 4128 
Q 4044 3513 4044 2388 
Q 4044 1231 3459 570 
Q 2875 -91 1856 -91 
Q 1528 -91 1228 -42 
Q 928 6 641 103 
z
M 2125 2350 
Q 2441 2350 2600 2554 
Q 2759 2759 2759 3169 
Q 2759 3575 2600 3781 
Q 2441 3988 2125 3988 
Q 1809 3988 1650 3781 
Q 1491 3575 1491 3169 
Q 1491 2759 1650 2554 
Q 1809 2350 2125 2350 
z
" transform="scale(0.015625)"/>
     </defs>
     <use xlink:href="#DejaVuSans-Bold-30"/>
     <use xlink:href="#DejaVuSans-Bold-2e" transform="translate(69.580078 0)"/>
     <use xlink:href="#DejaVuSans-Bold-37" transform="translate(107.568359 0)"/>
     <use xlink:href="#DejaVuSans-Bold-39" transform="translate(177.148438 0)"/>
    </g>
   </g>
   <g id="text_16">
    <!-- 0.00 -->
    <g style="fill: #111827" transform="translate(480.922858 312.047538) scale(0.09 -0.09)">
     <use xlink:href="#DejaVuSans-Bold-30"/>
     <use xlink:href="#DejaVuSans-Bold-2e" transform="translate(69.580078 0)"/>
     <use xlink:href="#DejaVuSans-Bold-30" transform="translate(107.568359 0)"/>
     <use xlink:href="#DejaVuSans-Bold-30" transform="translate(177.148438 0)"/>
    </g>
   </g>
   <g id="text_17">
    <!-- 0.00 -->
    <g style="fill: #111827" transform="translate(604.165122 312.047538) scale(0.09 -0.09)">
     <use xlink:href="#DejaVuSans-Bold-30"/>
     <use xlink:href="#DejaVuSans-Bold-2e" transform="translate(69.580078 0)"/>
     <use xlink:href="#DejaVuSans-Bold-30" transform="translate(107.568359 0)"/>
     <use xlink:href="#DejaVuSans-Bold-30" transform="translate(177.148438 0)"/>
    </g>
   </g>
   <g id="text_18">
    <!-- High-risk silent overwrites by conflict policy -->
    <g style="fill: #111827" transform="translate(181.932156 18.597656) scale(0.15 -0.15)">
     <defs>
      <path id="DejaVuSans-Bold-48" d="M 588 4666 
L 1791 4666 
L 1791 2888 
L 3566 2888 
L 3566 4666 
L 4769 4666 
L 4769 0 
L 3566 0 
L 3566 1978 
L 1791 1978 
L 1791 0 
L 588 0 
L 588 4666 
z
" transform="scale(0.015625)"/>
      <path id="DejaVuSans-Bold-69" d="M 538 3500 
L 1656 3500 
L 1656 0 
L 538 0 
L 538 3500 
z
M 538 4863 
L 1656 4863 
L 1656 3950 
L 538 3950 
L 538 4863 
z
" transform="scale(0.015625)"/>
      <path id="DejaVuSans-Bold-67" d="M 2919 594 
Q 2688 288 2409 144 
Q 2131 0 1766 0 
Q 1125 0 706 504 
Q 288 1009 288 1791 
Q 288 2575 706 3076 
Q 1125 3578 1766 3578 
Q 2131 3578 2409 3434 
Q 2688 3291 2919 2981 
L 2919 3500 
L 4044 3500 
L 4044 353 
Q 4044 -491 3511 -936 
Q 2978 -1381 1966 -1381 
Q 1638 -1381 1331 -1331 
Q 1025 -1281 716 -1178 
L 716 -306 
Q 1009 -475 1290 -558 
Q 1572 -641 1856 -641 
Q 2406 -641 2662 -400 
Q 2919 -159 2919 353 
L 2919 594 
z
M 2181 2772 
Q 1834 2772 1640 2515 
Q 1447 2259 1447 1791 
Q 1447 1309 1634 1061 
Q 1822 813 2181 813 
Q 2531 813 2725 1069 
Q 2919 1325 2919 1791 
Q 2919 2259 2725 2515 
Q 2531 2772 2181 2772 
z
" transform="scale(0.015625)"/>
      <path id="DejaVuSans-Bold-68" d="M 4056 2131 
L 4056 0 
L 2931 0 
L 2931 347 
L 2931 1625 
Q 2931 2084 2911 2256 
Q 2891 2428 2841 2509 
Q 2775 2619 2662 2680 
Q 2550 2741 2406 2741 
Q 2056 2741 1856 2470 
Q 1656 2200 1656 1722 
L 1656 0 
L 538 0 
L 538 4863 
L 1656 4863 
L 1656 2988 
Q 1909 3294 2193 3439 
Q 2478 3584 2822 3584 
Q 3428 3584 3742 3212 
Q 4056 2841 4056 2131 
z
" transform="scale(0.015625)"/>
      <path id="DejaVuSans-Bold-2d" d="M 347 2297 
L 2309 2297 
L 2309 1388 
L 347 1388 
L 347 2297 
z
" transform="scale(0.015625)"/>
      <path id="DejaVuSans-Bold-72" d="M 3138 2547 
Q 2991 2616 2845 2648 
Q 2700 2681 2553 2681 
Q 2122 2681 1889 2404 
Q 1656 2128 1656 1613 
L 1656 0 
L 538 0 
L 538 3500 
L 1656 3500 
L 1656 2925 
Q 1872 3269 2151 3426 
Q 2431 3584 2822 3584 
Q 2878 3584 2943 3579 
Q 3009 3575 3134 3559 
L 3138 2547 
z
" transform="scale(0.015625)"/>
      <path id="DejaVuSans-Bold-73" d="M 3272 3391 
L 3272 2541 
Q 2913 2691 2578 2766 
Q 2244 2841 1947 2841 
Q 1628 2841 1473 2761 
Q 1319 2681 1319 2516 
Q 1319 2381 1436 2309 
Q 1553 2238 1856 2203 
L 2053 2175 
Q 2913 2066 3209 1816 
Q 3506 1566 3506 1031 
Q 3506 472 3093 190 
Q 2681 -91 1863 -91 
Q 1516 -91 1145 -36 
Q 775 19 384 128 
L 384 978 
Q 719 816 1070 734 
Q 1422 653 1784 653 
Q 2113 653 2278 743 
Q 2444 834 2444 1013 
Q 2444 1163 2330 1236 
Q 2216 1309 1875 1350 
L 1678 1375 
Q 931 1469 631 1722 
Q 331 1975 331 2491 
Q 331 3047 712 3315 
Q 1094 3584 1881 3584 
Q 2191 3584 2531 3537 
Q 2872 3491 3272 3391 
z
" transform="scale(0.015625)"/>
      <path id="DejaVuSans-Bold-6b" d="M 538 4863 
L 1656 4863 
L 1656 2216 
L 2944 3500 
L 4244 3500 
L 2534 1894 
L 4378 0 
L 3022 0 
L 1656 1459 
L 1656 0 
L 538 0 
L 538 4863 
z
" transform="scale(0.015625)"/>
      <path id="DejaVuSans-Bold-20" transform="scale(0.015625)"/>
      <path id="DejaVuSans-Bold-6c" d="M 538 4863 
L 1656 4863 
L 1656 0 
L 538 0 
L 538 4863 
z
" transform="scale(0.015625)"/>
      <path id="DejaVuSans-Bold-65" d="M 4031 1759 
L 4031 1441 
L 1416 1441 
Q 1456 1047 1700 850 
Q 1944 653 2381 653 
Q 2734 653 3104 758 
Q 3475 863 3866 1075 
L 3866 213 
Q 3469 63 3072 -14 
Q 2675 -91 2278 -91 
Q 1328 -91 801 392 
Q 275 875 275 1747 
Q 275 2603 792 3093 
Q 1309 3584 2216 3584 
Q 3041 3584 3536 3087 
Q 4031 2591 4031 1759 
z
M 2881 2131 
Q 2881 2450 2695 2645 
Q 2509 2841 2209 2841 
Q 1884 2841 1681 2658 
Q 1478 2475 1428 2131 
L 2881 2131 
z
" transform="scale(0.015625)"/>
      <path id="DejaVuSans-Bold-6e" d="M 4056 2131 
L 4056 0 
L 2931 0 
L 2931 347 
L 2931 1631 
Q 2931 2084 2911 2256 
Q 2891 2428 2841 2509 
Q 2775 2619 2662 2680 
Q 2550 2741 2406 2741 
Q 2056 2741 1856 2470 
Q 1656 2200 1656 1722 
L 1656 0 
L 538 0 
L 538 3500 
L 1656 3500 
L 1656 2988 
Q 1909 3294 2193 3439 
Q 2478 3584 2822 3584 
Q 3428 3584 3742 3212 
Q 4056 2841 4056 2131 
z
" transform="scale(0.015625)"/>
      <path id="DejaVuSans-Bold-74" d="M 1759 4494 
L 1759 3500 
L 2913 3500 
L 2913 2700 
L 1759 2700 
L 1759 1216 
Q 1759 972 1856 886 
Q 1953 800 2241 800 
L 2816 800 
L 2816 0 
L 1856 0 
Q 1194 0 917 276 
Q 641 553 641 1216 
L 641 2700 
L 84 2700 
L 84 3500 
L 641 3500 
L 641 4494 
L 1759 4494 
z
" transform="scale(0.015625)"/>
      <path id="DejaVuSans-Bold-6f" d="M 2203 2784 
Q 1831 2784 1636 2517 
Q 1441 2250 1441 1747 
Q 1441 1244 1636 976 
Q 1831 709 2203 709 
Q 2569 709 2762 976 
Q 2956 1244 2956 1747 
Q 2956 2250 2762 2517 
Q 2569 2784 2203 2784 
z
M 2203 3584 
Q 3106 3584 3614 3096 
Q 4122 2609 4122 1747 
Q 4122 884 3614 396 
Q 3106 -91 2203 -91 
Q 1297 -91 786 396 
Q 275 884 275 1747 
Q 275 2609 786 3096 
Q 1297 3584 2203 3584 
z
" transform="scale(0.015625)"/>
      <path id="DejaVuSans-Bold-76" d="M 97 3500 
L 1216 3500 
L 2088 1081 
L 2956 3500 
L 4078 3500 
L 2700 0 
L 1472 0 
L 97 3500 
z
" transform="scale(0.015625)"/>
      <path id="DejaVuSans-Bold-77" d="M 225 3500 
L 1313 3500 
L 1900 1088 
L 2491 3500 
L 3425 3500 
L 4013 1113 
L 4603 3500 
L 5691 3500 
L 4769 0 
L 3547 0 
L 2956 2406 
L 2369 0 
L 1147 0 
L 225 3500 
z
" transform="scale(0.015625)"/>
      <path id="DejaVuSans-Bold-62" d="M 2400 722 
Q 2759 722 2948 984 
Q 3138 1247 3138 1747 
Q 3138 2247 2948 2509 
Q 2759 2772 2400 2772 
Q 2041 2772 1848 2508 
Q 1656 2244 1656 1747 
Q 1656 1250 1848 986 
Q 2041 722 2400 722 
z
M 1656 2988 
Q 1888 3294 2169 3439 
Q 2450 3584 2816 3584 
Q 3463 3584 3878 3070 
Q 4294 2556 4294 1747 
Q 4294 938 3878 423 
Q 3463 -91 2816 -91 
Q 2450 -91 2169 54 
Q 1888 200 1656 506 
L 1656 0 
L 538 0 
L 538 4863 
L 1656 4863 
L 1656 2988 
z
" transform="scale(0.015625)"/>
      <path id="DejaVuSans-Bold-79" d="M 78 3500 
L 1197 3500 
L 2138 1125 
L 2938 3500 
L 4056 3500 
L 2584 -331 
Q 2363 -916 2067 -1148 
Q 1772 -1381 1288 -1381 
L 641 -1381 
L 641 -647 
L 991 -647 
Q 1275 -647 1404 -556 
Q 1534 -466 1606 -231 
L 1638 -134 
L 78 3500 
z
" transform="scale(0.015625)"/>
      <path id="DejaVuSans-Bold-63" d="M 3366 3391 
L 3366 2478 
Q 3138 2634 2908 2709 
Q 2678 2784 2431 2784 
Q 1963 2784 1702 2511 
Q 1441 2238 1441 1747 
Q 1441 1256 1702 982 
Q 1963 709 2431 709 
Q 2694 709 2930 787 
Q 3166 866 3366 1019 
L 3366 103 
Q 3103 6 2833 -42 
Q 2563 -91 2291 -91 
Q 1344 -91 809 395 
Q 275 881 275 1747 
Q 275 2613 809 3098 
Q 1344 3584 2291 3584 
Q 2566 3584 2833 3536 
Q 3100 3488 3366 3391 
z
" transform="scale(0.015625)"/>
      <path id="DejaVuSans-Bold-66" d="M 2841 4863 
L 2841 4128 
L 2222 4128 
Q 1984 4128 1890 4042 
Q 1797 3956 1797 3744 
L 1797 3500 
L 2753 3500 
L 2753 2700 
L 1797 2700 
L 1797 0 
L 678 0 
L 678 2700 
L 122 2700 
L 122 3500 
L 678 3500 
L 678 3744 
Q 678 4316 997 4589 
Q 1316 4863 1984 4863 
L 2841 4863 
z
" transform="scale(0.015625)"/>
      <path id="DejaVuSans-Bold-70" d="M 1656 506 
L 1656 -1331 
L 538 -1331 
L 538 3500 
L 1656 3500 
L 1656 2988 
Q 1888 3294 2169 3439 
Q 2450 3584 2816 3584 
Q 3463 3584 3878 3070 
Q 4294 2556 4294 1747 
Q 4294 938 3878 423 
Q 3463 -91 2816 -91 
Q 2450 -91 2169 54 
Q 1888 200 1656 506 
z
M 2400 2772 
Q 2041 2772 1848 2508 
Q 1656 2244 1656 1747 
Q 1656 1250 1848 986 
Q 2041 722 2400 722 
Q 2759 722 2948 984 
Q 3138 1247 3138 1747 
Q 3138 2247 2948 2509 
Q 2759 2772 2400 2772 
z
" transform="scale(0.015625)"/>
     </defs>
     <use xlink:href="#DejaVuSans-Bold-48"/>
     <use xlink:href="#DejaVuSans-Bold-69" transform="translate(83.691406 0)"/>
     <use xlink:href="#DejaVuSans-Bold-67" transform="translate(117.96875 0)"/>
     <use xlink:href="#DejaVuSans-Bold-68" transform="translate(189.550781 0)"/>
     <use xlink:href="#DejaVuSans-Bold-2d" transform="translate(260.742188 0)"/>
     <use xlink:href="#DejaVuSans-Bold-72" transform="translate(302.246094 0)"/>
     <use xlink:href="#DejaVuSans-Bold-69" transform="translate(351.5625 0)"/>
     <use xlink:href="#DejaVuSans-Bold-73" transform="translate(385.839844 0)"/>
     <use xlink:href="#DejaVuSans-Bold-6b" transform="translate(445.361328 0)"/>
     <use xlink:href="#DejaVuSans-Bold-20" transform="translate(511.865234 0)"/>
     <use xlink:href="#DejaVuSans-Bold-73" transform="translate(546.679688 0)"/>
     <use xlink:href="#DejaVuSans-Bold-69" transform="translate(606.201172 0)"/>
     <use xlink:href="#DejaVuSans-Bold-6c" transform="translate(640.478516 0)"/>
     <use xlink:href="#DejaVuSans-Bold-65" transform="translate(674.755859 0)"/>
     <use xlink:href="#DejaVuSans-Bold-6e" transform="translate(742.578125 0)"/>
     <use xlink:href="#DejaVuSans-Bold-74" transform="translate(813.769531 0)"/>
     <use xlink:href="#DejaVuSans-Bold-20" transform="translate(861.572266 0)"/>
     <use xlink:href="#DejaVuSans-Bold-6f" transform="translate(896.386719 0)"/>
     <use xlink:href="#DejaVuSans-Bold-76" transform="translate(965.087891 0)"/>
     <use xlink:href="#DejaVuSans-Bold-65" transform="translate(1030.273438 0)"/>
     <use xlink:href="#DejaVuSans-Bold-72" transform="translate(1098.095703 0)"/>
     <use xlink:href="#DejaVuSans-Bold-77" transform="translate(1147.412109 0)"/>
     <use xlink:href="#DejaVuSans-Bold-72" transform="translate(1239.794922 0)"/>
     <use xlink:href="#DejaVuSans-Bold-69" transform="translate(1289.111328 0)"/>
     <use xlink:href="#DejaVuSans-Bold-74" transform="translate(1323.388672 0)"/>
     <use xlink:href="#DejaVuSans-Bold-65" transform="translate(1371.191406 0)"/>
     <use xlink:href="#DejaVuSans-Bold-73" transform="translate(1439.013672 0)"/>
     <use xlink:href="#DejaVuSans-Bold-20" transform="translate(1498.535156 0)"/>
     <use xlink:href="#DejaVuSans-Bold-62" transform="translate(1533.349609 0)"/>
     <use xlink:href="#DejaVuSans-Bold-79" transform="translate(1604.931641 0)"/>
     <use xlink:href="#DejaVuSans-Bold-20" transform="translate(1670.117188 0)"/>
     <use xlink:href="#DejaVuSans-Bold-63" transform="translate(1704.931641 0)"/>
     <use xlink:href="#DejaVuSans-Bold-6f" transform="translate(1764.208984 0)"/>
     <use xlink:href="#DejaVuSans-Bold-6e" transform="translate(1832.910156 0)"/>
     <use xlink:href="#DejaVuSans-Bold-66" transform="translate(1904.101562 0)"/>
     <use xlink:href="#DejaVuSans-Bold-6c" transform="translate(1947.607422 0)"/>
     <use xlink:href="#DejaVuSans-Bold-69" transform="translate(1981.884766 0)"/>
     <use xlink:href="#DejaVuSans-Bold-63" transform="translate(2016.162109 0)"/>
     <use xlink:href="#DejaVuSans-Bold-74" transform="translate(2075.439453 0)"/>
     <use xlink:href="#DejaVuSans-Bold-20" transform="translate(2123.242188 0)"/>
     <use xlink:href="#DejaVuSans-Bold-70" transform="translate(2158.056641 0)"/>
     <use xlink:href="#DejaVuSans-Bold-6f" transform="translate(2229.638672 0)"/>
     <use xlink:href="#DejaVuSans-Bold-6c" transform="translate(2298.339844 0)"/>
     <use xlink:href="#DejaVuSans-Bold-69" transform="translate(2332.617188 0)"/>
     <use xlink:href="#DejaVuSans-Bold-63" transform="translate(2366.894531 0)"/>
     <use xlink:href="#DejaVuSans-Bold-79" transform="translate(2426.171875 0)"/>
    </g>
   </g>
  </g>
  <g id="text_19">
   <!-- $\bf{\ Domain-aware}$ and $\bf{\ Manual\ review\ all}$ policies prevent silent overwrites for high-integrity setup entities by construction. -->
   <g style="fill: #4b5563" transform="translate(11.086938 401.557656) scale(0.09 -0.09)">
    <defs>
     <path id="DejaVuSans-Bold-44" d="M 1791 3756 
L 1791 909 
L 2222 909 
Q 2959 909 3348 1275 
Q 3738 1641 3738 2338 
Q 3738 3031 3350 3393 
Q 2963 3756 2222 3756 
L 1791 3756 
z
M 588 4666 
L 1856 4666 
Q 2919 4666 3439 4514 
Q 3959 4363 4331 4000 
Q 4659 3684 4818 3271 
Q 4978 2859 4978 2338 
Q 4978 1809 4818 1395 
Q 4659 981 4331 666 
Q 3956 303 3431 151 
Q 2906 0 1856 0 
L 588 0 
L 588 4666 
z
" transform="scale(0.015625)"/>
     <path id="DejaVuSans-Bold-6d" d="M 3781 2919 
Q 3994 3244 4286 3414 
Q 4578 3584 4928 3584 
Q 5531 3584 5847 3212 
Q 6163 2841 6163 2131 
L 6163 0 
L 5038 0 
L 5038 1825 
Q 5041 1866 5042 1909 
Q 5044 1953 5044 2034 
Q 5044 2406 4934 2573 
Q 4825 2741 4581 2741 
Q 4263 2741 4089 2478 
Q 3916 2216 3909 1719 
L 3909 0 
L 2784 0 
L 2784 1825 
Q 2784 2406 2684 2573 
Q 2584 2741 2328 2741 
Q 2006 2741 1831 2477 
Q 1656 2213 1656 1722 
L 1656 0 
L 531 0 
L 531 3500 
L 1656 3500 
L 1656 2988 
Q 1863 3284 2130 3434 
Q 2397 3584 2719 3584 
Q 3081 3584 3359 3409 
Q 3638 3234 3781 2919 
z
" transform="scale(0.015625)"/>
     <path id="DejaVuSans-Bold-61" d="M 2106 1575 
Q 1756 1575 1579 1456 
Q 1403 1338 1403 1106 
Q 1403 894 1545 773 
Q 1688 653 1941 653 
Q 2256 653 2472 879 
Q 2688 1106 2688 1447 
L 2688 1575 
L 2106 1575 
z
M 3816 1997 
L 3816 0 
L 2688 0 
L 2688 519 
Q 2463 200 2181 54 
Q 1900 -91 1497 -91 
Q 953 -91 614 226 
Q 275 544 275 1050 
Q 275 1666 698 1953 
Q 1122 2241 2028 2241 
L 2688 2241 
L 2688 2328 
Q 2688 2594 2478 2717 
Q 2269 2841 1825 2841 
Q 1466 2841 1156 2769 
Q 847 2697 581 2553 
L 581 3406 
Q 941 3494 1303 3539 
Q 1666 3584 2028 3584 
Q 2975 3584 3395 3211 
Q 3816 2838 3816 1997 
z
" transform="scale(0.015625)"/>
     <path id="DejaVuSans-Bold-2212" d="M 678 2375 
L 4684 2375 
L 4684 1638 
L 678 1638 
L 678 2375 
z
" transform="scale(0.015625)"/>
     <path id="DejaVuSans-Bold-4d" d="M 588 4666 
L 2119 4666 
L 3181 2169 
L 4250 4666 
L 5778 4666 
L 5778 0 
L 4641 0 
L 4641 3413 
L 3566 897 
L 2803 897 
L 1728 3413 
L 1728 0 
L 588 0 
L 588 4666 
z
" transform="scale(0.015625)"/>
     <path id="DejaVuSans-Bold-75" d="M 500 1363 
L 500 3500 
L 1625 3500 
L 1625 3150 
Q 1625 2866 1622 2436 
Q 1619 2006 1619 1863 
Q 1619 1441 1641 1255 
Q 1663 1069 1716 984 
Q 1784 875 1895 815 
Q 2006 756 2150 756 
Q 2500 756 2700 1025 
Q 2900 1294 2900 1772 
L 2900 3500 
L 4019 3500 
L 4019 0 
L 2900 0 
L 2900 506 
Q 2647 200 2364 54 
Q 2081 -91 1741 -91 
Q 1134 -91 817 281 
Q 500 653 500 1363 
z
" transform="scale(0.015625)"/>
    </defs>
    <use xlink:href="#DejaVuSans-Bold-44" transform="translate(32.470378 0.015625)"/>
    <use xlink:href="#DejaVuSans-Bold-6f" transform="translate(115.478191 0.015625)"/>
    <use xlink:href="#DejaVuSans-Bold-6d" transform="translate(184.179363 0.015625)"/>
    <use xlink:href="#DejaVuSans-Bold-61" transform="translate(288.378582 0.015625)"/>
    <use xlink:href="#DejaVuSans-Bold-69" transform="translate(355.85905 0.015625)"/>
    <use xlink:href="#DejaVuSans-Bold-6e" transform="translate(390.136394 0.015625)"/>
    <use xlink:href="#DejaVuSans-Bold-2212" transform="translate(480.810222 0.015625)"/>
    <use xlink:href="#DejaVuSans-Bold-61" transform="translate(584.081707 0.015625)"/>
    <use xlink:href="#DejaVuSans-Bold-77" transform="translate(651.562175 0.015625)"/>
    <use xlink:href="#DejaVuSans-Bold-61" transform="translate(743.944988 0.015625)"/>
    <use xlink:href="#DejaVuSans-Bold-72" transform="translate(811.425457 0.015625)"/>
    <use xlink:href="#DejaVuSans-Bold-65" transform="translate(860.741863 0.015625)"/>
    <use xlink:href="#DejaVuSans-20" transform="translate(928.564128 0.015625)"/>
    <use xlink:href="#DejaVuSans-61" transform="translate(960.351238 0.015625)"/>
    <use xlink:href="#DejaVuSans-6e" transform="translate(1021.630535 0.015625)"/>
    <use xlink:href="#DejaVuSans-64" transform="translate(1085.009441 0.015625)"/>
    <use xlink:href="#DejaVuSans-20" transform="translate(1148.486003 0.015625)"/>
    <use xlink:href="#DejaVuSans-Bold-4d" transform="translate(1212.743491 0.015625)"/>
    <use xlink:href="#DejaVuSans-Bold-61" transform="translate(1312.25521 0.015625)"/>
    <use xlink:href="#DejaVuSans-Bold-6e" transform="translate(1379.735679 0.015625)"/>
    <use xlink:href="#DejaVuSans-Bold-75" transform="translate(1450.927085 0.015625)"/>
    <use xlink:href="#DejaVuSans-Bold-61" transform="translate(1522.118491 0.015625)"/>
    <use xlink:href="#DejaVuSans-Bold-6c" transform="translate(1589.59896 0.015625)"/>
    <use xlink:href="#DejaVuSans-Bold-72" transform="translate(1656.346682 0.015625)"/>
    <use xlink:href="#DejaVuSans-Bold-65" transform="translate(1705.663088 0.015625)"/>
    <use xlink:href="#DejaVuSans-Bold-76" transform="translate(1773.485354 0.015625)"/>
    <use xlink:href="#DejaVuSans-Bold-69" transform="translate(1838.670901 0.015625)"/>
    <use xlink:href="#DejaVuSans-Bold-65" transform="translate(1872.948245 0.015625)"/>
    <use xlink:href="#DejaVuSans-Bold-77" transform="translate(1940.77051 0.015625)"/>
    <use xlink:href="#DejaVuSans-Bold-61" transform="translate(2065.623701 0.015625)"/>
    <use xlink:href="#DejaVuSans-Bold-6c" transform="translate(2133.10417 0.015625)"/>
    <use xlink:href="#DejaVuSans-Bold-6c" transform="translate(2167.381514 0.015625)"/>
    <use xlink:href="#DejaVuSans-20" transform="translate(2201.658857 0.015625)"/>
    <use xlink:href="#DejaVuSans-70" transform="translate(2233.445967 0.015625)"/>
    <use xlink:href="#DejaVuSans-6f" transform="translate(2296.922529 0.015625)"/>
    <use xlink:href="#DejaVuSans-6c" transform="translate(2358.10417 0.015625)"/>
    <use xlink:href="#DejaVuSans-69" transform="translate(2385.887373 0.015625)"/>
    <use xlink:href="#DejaVuSans-63" transform="translate(2413.670576 0.015625)"/>
    <use xlink:href="#DejaVuSans-69" transform="translate(2468.651045 0.015625)"/>
    <use xlink:href="#DejaVuSans-65" transform="translate(2496.434248 0.015625)"/>
    <use xlink:href="#DejaVuSans-73" transform="translate(2557.957686 0.015625)"/>
    <use xlink:href="#DejaVuSans-20" transform="translate(2610.057295 0.015625)"/>
    <use xlink:href="#DejaVuSans-70" transform="translate(2641.844404 0.015625)"/>
    <use xlink:href="#DejaVuSans-72" transform="translate(2705.320967 0.015625)"/>
    <use xlink:href="#DejaVuSans-65" transform="translate(2746.434248 0.015625)"/>
    <use xlink:href="#DejaVuSans-76" transform="translate(2807.957686 0.015625)"/>
    <use xlink:href="#DejaVuSans-65" transform="translate(2867.137373 0.015625)"/>
    <use xlink:href="#DejaVuSans-6e" transform="translate(2928.660811 0.015625)"/>
    <use xlink:href="#DejaVuSans-74" transform="translate(2992.039717 0.015625)"/>
    <use xlink:href="#DejaVuSans-20" transform="translate(3031.248701 0.015625)"/>
    <use xlink:href="#DejaVuSans-73" transform="translate(3063.035811 0.015625)"/>
    <use xlink:href="#DejaVuSans-69" transform="translate(3115.13542 0.015625)"/>
    <use xlink:href="#DejaVuSans-6c" transform="translate(3142.918623 0.015625)"/>
    <use xlink:href="#DejaVuSans-65" transform="translate(3170.701826 0.015625)"/>
    <use xlink:href="#DejaVuSans-6e" transform="translate(3232.225264 0.015625)"/>
    <use xlink:href="#DejaVuSans-74" transform="translate(3295.60417 0.015625)"/>
    <use xlink:href="#DejaVuSans-20" transform="translate(3334.813154 0.015625)"/>
    <use xlink:href="#DejaVuSans-6f" transform="translate(3366.600264 0.015625)"/>
    <use xlink:href="#DejaVuSans-76" transform="translate(3427.781904 0.015625)"/>
    <use xlink:href="#DejaVuSans-65" transform="translate(3486.961592 0.015625)"/>
    <use xlink:href="#DejaVuSans-72" transform="translate(3548.485029 0.015625)"/>
    <use xlink:href="#DejaVuSans-77" transform="translate(3589.598311 0.015625)"/>
    <use xlink:href="#DejaVuSans-72" transform="translate(3671.38542 0.015625)"/>
    <use xlink:href="#DejaVuSans-69" transform="translate(3712.498701 0.015625)"/>
    <use xlink:href="#DejaVuSans-74" transform="translate(3740.281904 0.015625)"/>
    <use xlink:href="#DejaVuSans-65" transform="translate(3779.490889 0.015625)"/>
    <use xlink:href="#DejaVuSans-73" transform="translate(3841.014326 0.015625)"/>
    <use xlink:href="#DejaVuSans-20" transform="translate(3893.113936 0.015625)"/>
    <use xlink:href="#DejaVuSans-66" transform="translate(3924.901045 0.015625)"/>
    <use xlink:href="#DejaVuSans-6f" transform="translate(3960.106123 0.015625)"/>
    <use xlink:href="#DejaVuSans-72" transform="translate(4021.287764 0.015625)"/>
    <use xlink:href="#DejaVuSans-20" transform="translate(4062.401045 0.015625)"/>
    <use xlink:href="#DejaVuSans-68" transform="translate(4094.188154 0.015625)"/>
    <use xlink:href="#DejaVuSans-69" transform="translate(4157.567061 0.015625)"/>
    <use xlink:href="#DejaVuSans-67" transform="translate(4185.350264 0.015625)"/>
    <use xlink:href="#DejaVuSans-68" transform="translate(4248.826826 0.015625)"/>
    <use xlink:href="#DejaVuSans-2d" transform="translate(4312.205732 0.015625)"/>
    <use xlink:href="#DejaVuSans-69" transform="translate(4348.289717 0.015625)"/>
    <use xlink:href="#DejaVuSans-6e" transform="translate(4376.07292 0.015625)"/>
    <use xlink:href="#DejaVuSans-74" transform="translate(4439.451826 0.015625)"/>
    <use xlink:href="#DejaVuSans-65" transform="translate(4478.660811 0.015625)"/>
    <use xlink:href="#DejaVuSans-67" transform="translate(4540.184248 0.015625)"/>
    <use xlink:href="#DejaVuSans-72" transform="translate(4603.660811 0.015625)"/>
    <use xlink:href="#DejaVuSans-69" transform="translate(4644.774092 0.015625)"/>
    <use xlink:href="#DejaVuSans-74" transform="translate(4672.557295 0.015625)"/>
    <use xlink:href="#DejaVuSans-79" transform="translate(4711.766279 0.015625)"/>
    <use xlink:href="#DejaVuSans-20" transform="translate(4770.945967 0.015625)"/>
    <use xlink:href="#DejaVuSans-73" transform="translate(4802.733076 0.015625)"/>
    <use xlink:href="#DejaVuSans-65" transform="translate(4854.832686 0.015625)"/>
    <use xlink:href="#DejaVuSans-74" transform="translate(4916.356123 0.015625)"/>
    <use xlink:href="#DejaVuSans-75" transform="translate(4955.565107 0.015625)"/>
    <use xlink:href="#DejaVuSans-70" transform="translate(5018.944014 0.015625)"/>
    <use xlink:href="#DejaVuSans-20" transform="translate(5082.420576 0.015625)"/>
    <use xlink:href="#DejaVuSans-65" transform="translate(5114.207686 0.015625)"/>
    <use xlink:href="#DejaVuSans-6e" transform="translate(5175.731123 0.015625)"/>
    <use xlink:href="#DejaVuSans-74" transform="translate(5239.110029 0.015625)"/>
    <use xlink:href="#DejaVuSans-69" transform="translate(5278.319014 0.015625)"/>
    <use xlink:href="#DejaVuSans-74" transform="translate(5306.102217 0.015625)"/>
    <use xlink:href="#DejaVuSans-69" transform="translate(5345.311201 0.015625)"/>
    <use xlink:href="#DejaVuSans-65" transform="translate(5373.094404 0.015625)"/>
    <use xlink:href="#DejaVuSans-73" transform="translate(5434.617842 0.015625)"/>
    <use xlink:href="#DejaVuSans-20" transform="translate(5486.717451 0.015625)"/>
    <use xlink:href="#DejaVuSans-62" transform="translate(5518.504561 0.015625)"/>
    <use xlink:href="#DejaVuSans-79" transform="translate(5581.981123 0.015625)"/>
    <use xlink:href="#DejaVuSans-20" transform="translate(5641.160811 0.015625)"/>
    <use xlink:href="#DejaVuSans-63" transform="translate(5672.94792 0.015625)"/>
    <use xlink:href="#DejaVuSans-6f" transform="translate(5727.928389 0.015625)"/>
    <use xlink:href="#DejaVuSans-6e" transform="translate(5789.110029 0.015625)"/>
    <use xlink:href="#DejaVuSans-73" transform="translate(5852.488936 0.015625)"/>
    <use xlink:href="#DejaVuSans-74" transform="translate(5904.588545 0.015625)"/>
    <use xlink:href="#DejaVuSans-72" transform="translate(5943.797529 0.015625)"/>
    <use xlink:href="#DejaVuSans-75" transform="translate(5984.910811 0.015625)"/>
    <use xlink:href="#DejaVuSans-63" transform="translate(6048.289717 0.015625)"/>
    <use xlink:href="#DejaVuSans-74" transform="translate(6103.270186 0.015625)"/>
    <use xlink:href="#DejaVuSans-69" transform="translate(6142.47917 0.015625)"/>
    <use xlink:href="#DejaVuSans-6f" transform="translate(6170.262373 0.015625)"/>
    <use xlink:href="#DejaVuSans-6e" transform="translate(6231.444014 0.015625)"/>
    <use xlink:href="#DejaVuSans-2e" transform="translate(6294.82292 0.015625)"/>
   </g>
  </g>
  <g id="text_20">
   <!-- Error bars show 95% confidence intervals over all simulation runs for each policy. -->
   <g style="fill: #4b5563" transform="translate(11.086938 416.245656) scale(0.09 -0.09)">
    <defs>
     <path id="DejaVuSans-45" d="M 628 4666 
L 3578 4666 
L 3578 4134 
L 1259 4134 
L 1259 2753 
L 3481 2753 
L 3481 2222 
L 1259 2222 
L 1259 531 
L 3634 531 
L 3634 0 
L 628 0 
L 628 4666 
z
" transform="scale(0.015625)"/>
     <path id="DejaVuSans-39" d="M 703 97 
L 703 672 
Q 941 559 1184 500 
Q 1428 441 1663 441 
Q 2288 441 2617 861 
Q 2947 1281 2994 2138 
Q 2813 1869 2534 1725 
Q 2256 1581 1919 1581 
Q 1219 1581 811 2004 
Q 403 2428 403 3163 
Q 403 3881 828 4315 
Q 1253 4750 1959 4750 
Q 2769 4750 3195 4129 
Q 3622 3509 3622 2328 
Q 3622 1225 3098 567 
Q 2575 -91 1691 -91 
Q 1453 -91 1209 -44 
Q 966 3 703 97 
z
M 1959 2075 
Q 2384 2075 2632 2365 
Q 2881 2656 2881 3163 
Q 2881 3666 2632 3958 
Q 2384 4250 1959 4250 
Q 1534 4250 1286 3958 
Q 1038 3666 1038 3163 
Q 1038 2656 1286 2365 
Q 1534 2075 1959 2075 
z
" transform="scale(0.015625)"/>
     <path id="DejaVuSans-25" d="M 4653 2053 
Q 4381 2053 4226 1822 
Q 4072 1591 4072 1178 
Q 4072 772 4226 539 
Q 4381 306 4653 306 
Q 4919 306 5073 539 
Q 5228 772 5228 1178 
Q 5228 1588 5073 1820 
Q 4919 2053 4653 2053 
z
M 4653 2450 
Q 5147 2450 5437 2106 
Q 5728 1763 5728 1178 
Q 5728 594 5436 251 
Q 5144 -91 4653 -91 
Q 4153 -91 3862 251 
Q 3572 594 3572 1178 
Q 3572 1766 3864 2108 
Q 4156 2450 4653 2450 
z
M 1428 4353 
Q 1159 4353 1004 4120 
Q 850 3888 850 3481 
Q 850 3069 1003 2837 
Q 1156 2606 1428 2606 
Q 1700 2606 1854 2837 
Q 2009 3069 2009 3481 
Q 2009 3884 1853 4118 
Q 1697 4353 1428 4353 
z
M 4250 4750 
L 4750 4750 
L 1831 -91 
L 1331 -91 
L 4250 4750 
z
M 1428 4750 
Q 1922 4750 2215 4408 
Q 2509 4066 2509 3481 
Q 2509 2891 2217 2550 
Q 1925 2209 1428 2209 
Q 931 2209 642 2551 
Q 353 2894 353 3481 
Q 353 4063 643 4406 
Q 934 4750 1428 4750 
z
" transform="scale(0.015625)"/>
    </defs>
    <use xlink:href="#DejaVuSans-45"/>
    <use xlink:href="#DejaVuSans-72" transform="translate(63.183594 0)"/>
    <use xlink:href="#DejaVuSans-72" transform="translate(102.546875 0)"/>
    <use xlink:href="#DejaVuSans-6f" transform="translate(141.410156 0)"/>
    <use xlink:href="#DejaVuSans-72" transform="translate(202.591797 0)"/>
    <use xlink:href="#DejaVuSans-20" transform="translate(243.705078 0)"/>
    <use xlink:href="#DejaVuSans-62" transform="translate(275.492188 0)"/>
    <use xlink:href="#DejaVuSans-61" transform="translate(338.96875 0)"/>
    <use xlink:href="#DejaVuSans-72" transform="translate(400.248047 0)"/>
    <use xlink:href="#DejaVuSans-73" transform="translate(441.361328 0)"/>
    <use xlink:href="#DejaVuSans-20" transform="translate(493.460938 0)"/>
    <use xlink:href="#DejaVuSans-73" transform="translate(525.248047 0)"/>
    <use xlink:href="#DejaVuSans-68" transform="translate(577.347656 0)"/>
    <use xlink:href="#DejaVuSans-6f" transform="translate(640.726562 0)"/>
    <use xlink:href="#DejaVuSans-77" transform="translate(701.908203 0)"/>
    <use xlink:href="#DejaVuSans-20" transform="translate(783.695312 0)"/>
    <use xlink:href="#DejaVuSans-39" transform="translate(815.482422 0)"/>
    <use xlink:href="#DejaVuSans-35" transform="translate(879.105469 0)"/>
    <use xlink:href="#DejaVuSans-25" transform="translate(942.728516 0)"/>
    <use xlink:href="#DejaVuSans-20" transform="translate(1037.748047 0)"/>
    <use xlink:href="#DejaVuSans-63" transform="translate(1069.535156 0)"/>
    <use xlink:href="#DejaVuSans-6f" transform="translate(1124.515625 0)"/>
    <use xlink:href="#DejaVuSans-6e" transform="translate(1185.697266 0)"/>
    <use xlink:href="#DejaVuSans-66" transform="translate(1249.076172 0)"/>
    <use xlink:href="#DejaVuSans-69" transform="translate(1284.28125 0)"/>
    <use xlink:href="#DejaVuSans-64" transform="translate(1312.064453 0)"/>
    <use xlink:href="#DejaVuSans-65" transform="translate(1375.541016 0)"/>
    <use xlink:href="#DejaVuSans-6e" transform="translate(1437.064453 0)"/>
    <use xlink:href="#DejaVuSans-63" transform="translate(1500.443359 0)"/>
    <use xlink:href="#DejaVuSans-65" transform="translate(1555.423828 0)"/>
    <use xlink:href="#DejaVuSans-20" transform="translate(1616.947266 0)"/>
    <use xlink:href="#DejaVuSans-69" transform="translate(1648.734375 0)"/>
    <use xlink:href="#DejaVuSans-6e" transform="translate(1676.517578 0)"/>
    <use xlink:href="#DejaVuSans-74" transform="translate(1739.896484 0)"/>
    <use xlink:href="#DejaVuSans-65" transform="translate(1779.105469 0)"/>
    <use xlink:href="#DejaVuSans-72" transform="translate(1840.628906 0)"/>
    <use xlink:href="#DejaVuSans-76" transform="translate(1881.742188 0)"/>
    <use xlink:href="#DejaVuSans-61" transform="translate(1940.921875 0)"/>
    <use xlink:href="#DejaVuSans-6c" transform="translate(2002.201172 0)"/>
    <use xlink:href="#DejaVuSans-73" transform="translate(2029.984375 0)"/>
    <use xlink:href="#DejaVuSans-20" transform="translate(2082.083984 0)"/>
    <use xlink:href="#DejaVuSans-6f" transform="translate(2113.871094 0)"/>
    <use xlink:href="#DejaVuSans-76" transform="translate(2175.052734 0)"/>
    <use xlink:href="#DejaVuSans-65" transform="translate(2234.232422 0)"/>
    <use xlink:href="#DejaVuSans-72" transform="translate(2295.755859 0)"/>
    <use xlink:href="#DejaVuSans-20" transform="translate(2336.869141 0)"/>
    <use xlink:href="#DejaVuSans-61" transform="translate(2368.65625 0)"/>
    <use xlink:href="#DejaVuSans-6c" transform="translate(2429.935547 0)"/>
    <use xlink:href="#DejaVuSans-6c" transform="translate(2457.71875 0)"/>
    <use xlink:href="#DejaVuSans-20" transform="translate(2485.501953 0)"/>
    <use xlink:href="#DejaVuSans-73" transform="translate(2517.289062 0)"/>
    <use xlink:href="#DejaVuSans-69" transform="translate(2569.388672 0)"/>
    <use xlink:href="#DejaVuSans-6d" transform="translate(2597.171875 0)"/>
    <use xlink:href="#DejaVuSans-75" transform="translate(2694.583984 0)"/>
    <use xlink:href="#DejaVuSans-6c" transform="translate(2757.962891 0)"/>
    <use xlink:href="#DejaVuSans-61" transform="translate(2785.746094 0)"/>
    <use xlink:href="#DejaVuSans-74" transform="translate(2847.025391 0)"/>
    <use xlink:href="#DejaVuSans-69" transform="translate(2886.234375 0)"/>
    <use xlink:href="#DejaVuSans-6f" transform="translate(2914.017578 0)"/>
    <use xlink:href="#DejaVuSans-6e" transform="translate(2975.199219 0)"/>
    <use xlink:href="#DejaVuSans-20" transform="translate(3038.578125 0)"/>
    <use xlink:href="#DejaVuSans-72" transform="translate(3070.365234 0)"/>
    <use xlink:href="#DejaVuSans-75" transform="translate(3111.478516 0)"/>
    <use xlink:href="#DejaVuSans-6e" transform="translate(3174.857422 0)"/>
    <use xlink:href="#DejaVuSans-73" transform="translate(3238.236328 0)"/>
    <use xlink:href="#DejaVuSans-20" transform="translate(3290.335938 0)"/>
    <use xlink:href="#DejaVuSans-66" transform="translate(3322.123047 0)"/>
    <use xlink:href="#DejaVuSans-6f" transform="translate(3357.328125 0)"/>
    <use xlink:href="#DejaVuSans-72" transform="translate(3418.509766 0)"/>
    <use xlink:href="#DejaVuSans-20" transform="translate(3459.623047 0)"/>
    <use xlink:href="#DejaVuSans-65" transform="translate(3491.410156 0)"/>
    <use xlink:href="#DejaVuSans-61" transform="translate(3552.933594 0)"/>
    <use xlink:href="#DejaVuSans-63" transform="translate(3614.212891 0)"/>
    <use xlink:href="#DejaVuSans-68" transform="translate(3669.193359 0)"/>
    <use xlink:href="#DejaVuSans-20" transform="translate(3732.572266 0)"/>
    <use xlink:href="#DejaVuSans-70" transform="translate(3764.359375 0)"/>
    <use xlink:href="#DejaVuSans-6f" transform="translate(3827.835938 0)"/>
    <use xlink:href="#DejaVuSans-6c" transform="translate(3889.017578 0)"/>
    <use xlink:href="#DejaVuSans-69" transform="translate(3916.800781 0)"/>
    <use xlink:href="#DejaVuSans-63" transform="translate(3944.583984 0)"/>
    <use xlink:href="#DejaVuSans-79" transform="translate(3999.564453 0)"/>
    <use xlink:href="#DejaVuSans-2e" transform="translate(4044.494141 0)"/>
   </g>
  </g>
 </g>
 <defs>
  <clipPath id="p66896cc0f6">
   <rect x="42.190938" y="46.597656" width="653.184" height="274.176"/>
  </clipPath>
 </defs>
</svg>
